<svg preserveAspectRatio="none" width="100%" height="100%" overflow="visible" style="display: block;" viewBox="0 0 127.153 22.2168" fill="none" xmlns="http://www.w3.org/2000/svg">
<g id="Text">
<path id="Vector" d="M0 1.30397C1.94764 1.02077 3.91385 0.884752 5.88194 0.897092C8.78369 0.897092 10.8179 1.33339 12.2099 2.43638C12.8146 2.92724 13.2951 3.55358 13.6128 4.26471C13.9304 4.97584 14.0761 5.75177 14.0382 6.5297C14.0235 7.58921 13.6843 8.61874 13.0664 9.4795C12.4485 10.3403 11.5816 10.9909 10.5826 11.3436V11.4319C11.9501 11.9858 12.7001 13.2898 13.1951 15.0889C13.8029 17.2949 14.4156 19.8489 14.7931 20.6039H10.264C9.94538 20.0499 9.45031 18.4567 8.90133 16.0497C8.35235 13.6428 7.51907 12.9025 5.70548 12.9025H4.38204V20.6039H0V1.30397ZM4.38204 9.72102H6.12702C8.32784 9.72102 9.63657 8.61803 9.63657 6.90717C9.63657 5.10807 8.41607 4.20607 6.3868 4.17665C5.71545 4.16399 5.04436 4.21322 4.38204 4.32372V9.72102Z" fill="var(--fill-0, #1E1E1E)"/>
<path id="Vector_2" d="M23.6796 6.09355C24.8676 6.06303 26.0452 6.32213 27.1107 6.84849L28.4734 4.8435L30.0125 5.91708L28.7037 7.87795C29.4888 8.57887 30.1094 9.44456 30.5212 10.4132C30.933 11.3818 31.1259 12.4294 31.0859 13.4811C31.0859 18.5304 27.3705 20.9374 23.6845 20.9374C22.5173 20.964 21.3612 20.7048 20.3171 20.1824L18.8907 22.2168L17.4202 21.0599L18.6995 19.1726C17.1604 17.9225 16.2487 16.0107 16.2487 13.5106C16.2487 9.04467 19.2632 6.08375 23.6453 6.08375L23.6796 6.09355ZM25.2481 9.75058C24.7977 9.4069 24.2461 9.22241 23.6796 9.22605C21.3856 9.22605 20.518 11.5203 20.518 13.4958C20.4936 14.2813 20.6726 15.0598 21.0376 15.7558L21.0964 15.7852L25.2481 9.75058ZM22.1993 17.2362C22.6045 17.5924 23.1306 17.7801 23.6698 17.7607C25.6304 17.7607 26.8313 16.0744 26.8313 13.5792C26.845 12.8216 26.698 12.0698 26.4 11.3732L26.3118 11.3438L22.1993 17.2362Z" fill="var(--fill-0, #1E1E1E)"/>
<path id="Vector_3" d="M47.5309 2.19734e-05V16.3684C47.5309 17.9616 47.5898 19.648 47.6486 20.6039H43.7273L43.5214 18.5156H43.4479C42.9943 19.274 42.346 19.8972 41.5702 20.3205C40.7945 20.7437 39.9196 20.9516 39.0365 20.9225C35.669 20.9225 32.9683 18.0499 32.9683 13.6379C32.9683 8.84846 35.9092 6.09343 39.3403 6.09343C41.0804 6.09343 42.4431 6.7013 43.0852 7.69154H43.1391V2.19734e-05H47.5309ZM43.1195 12.4221C43.1195 12.1868 43.0901 11.8682 43.0656 11.6378C42.9539 11.0372 42.6383 10.4935 42.1721 10.0987C41.7059 9.70391 41.1177 9.4822 40.5069 9.47104C38.5022 9.47104 37.4581 11.2701 37.4581 13.5055C37.4581 15.9125 38.6492 17.4273 40.4775 17.4273C41.0838 17.4293 41.6716 17.2185 42.1383 16.8314C42.605 16.4444 42.921 15.9058 43.0313 15.3095C43.1128 14.976 43.1507 14.6332 43.144 14.2899L43.1195 12.4221Z" fill="var(--fill-0, #1E1E1E)"/>
<path id="Vector_4" d="M54.4667 14.8883C54.6137 16.7168 56.4273 17.5845 58.4713 17.5845C59.8009 17.602 61.1247 17.4067 62.3926 17.006L62.9759 19.9963C61.3347 20.6137 59.5923 20.918 57.839 20.8934C53.0207 20.8934 50.266 18.0796 50.266 13.6382C50.266 10.04 52.5011 6.06435 57.4322 6.06435C62.0152 6.06435 63.7602 9.63314 63.7602 13.148C63.7599 13.7409 63.7107 14.3328 63.6131 14.9177L54.4667 14.8883ZM59.6624 11.8685C59.6624 10.795 59.1967 8.99585 57.1675 8.99585C55.3098 8.99585 54.5549 10.7067 54.4373 11.8685H59.6624Z" fill="var(--fill-0, #1E1E1E)"/>
<path id="Vector_5" d="M72.4016 1.04386H76.7788V9.69131H76.8621C77.2984 8.93637 77.7346 8.22065 78.2002 7.54415L82.6117 1.04386H88.0525L81.5823 9.37757L88.4005 20.6085H83.2538L78.4649 12.162L76.7788 14.2209V20.5938H72.3967L72.4016 1.04386Z" fill="var(--fill-0, #1E1E1E)"/>
<path id="Vector_6" d="M96.0175 20.9221C91.8708 20.9221 88.6651 18.1965 88.6651 13.608C88.6651 9.01958 91.6796 6.09298 96.2381 6.09298C100.591 6.09298 103.492 9.08331 103.492 13.3482C103.492 18.5445 99.8065 20.9221 96.0322 20.9221H96.0175ZM96.1058 17.7602C97.8164 17.7602 98.9193 16.0493 98.9193 13.4953C98.9193 11.3726 98.1105 9.22547 96.1058 9.22547C93.9883 9.22547 93.204 11.402 93.204 13.4953C93.204 15.9464 94.2186 17.7602 96.0763 17.7602H96.1058Z" fill="var(--fill-0, #1E1E1E)"/>
<path id="Vector_7" d="M106.233 11.0839C106.233 8.99558 106.174 7.65238 106.115 6.41213H109.919L110.066 9.02499H110.179C110.434 8.19792 110.94 7.47064 111.627 6.94372C112.313 6.41679 113.147 6.11626 114.012 6.08368C114.322 6.07102 114.632 6.09073 114.938 6.14251V10.2898C114.537 10.2187 114.13 10.181 113.722 10.177C112.095 10.177 110.992 11.0447 110.703 12.4124C110.642 12.7356 110.613 13.0639 110.615 13.3928V20.6039H106.203L106.233 11.0839Z" fill="var(--fill-0, #1E1E1E)"/>
<path id="Vector_8" d="M117.202 16.7458C118.371 17.3861 119.67 17.7484 121.001 17.8047C122.339 17.8047 122.888 17.3145 122.888 16.6135C122.888 15.9125 122.452 15.5105 120.8 14.9859C117.859 14.0055 116.766 12.4074 116.766 10.721C116.766 8.07877 119.001 6.07868 122.54 6.07868C123.918 6.0557 125.285 6.3334 126.545 6.89244L125.761 9.96121C124.812 9.45834 123.76 9.18151 122.687 9.15235C121.614 9.15235 121.001 9.58374 121.001 10.3093C121.001 11.0348 121.555 11.3534 123.295 11.9368C125.996 12.8633 127.128 14.231 127.153 16.3193C127.153 18.9567 125.065 20.9323 121.001 20.9323C119.415 20.9605 117.844 20.6127 116.418 19.9175L117.202 16.7458Z" fill="var(--fill-0, #1E1E1E)"/>
</g>
</svg>
