<svg preserveAspectRatio="none" width="100%" height="100%" overflow="visible" style="display: block;" viewBox="0 0 25.721 24.166" fill="none" xmlns="http://www.w3.org/2000/svg">
<path id="shape" d="M18.3605 0C20.3858 2.70913e-05 22.1252 1.01674 23.5675 2.45898C26.7308 5.62229 26.5097 10.9318 22.2345 15.207L13.5685 23.873C13.381 24.0605 13.1256 24.166 12.8605 24.166C12.5953 24.166 12.341 24.0606 12.1535 23.873L3.48648 15.207C-0.78872 10.9319 -1.00983 5.6223 2.15347 2.45898C3.59576 1.01676 5.33517 -7.94691e-07 7.3605 0C9.15905 2.54762e-05 10.9951 0.801582 12.8605 2.45801C14.7259 0.801611 16.562 0 18.3605 0ZM18.3605 2C17.0526 2 15.4585 2.64907 13.5675 4.54004C13.38 4.72756 13.1257 4.83299 12.8605 4.83301C12.5953 4.83301 12.341 4.72755 12.1535 4.54004C10.2625 2.64908 8.6684 2.00003 7.3605 2C6.05266 2 4.7918 2.64884 3.56753 3.87305C1.39752 6.04307 1.17573 10.0682 4.90054 13.793L12.8605 21.752L20.8205 13.793C24.5452 10.0682 24.3235 6.04306 22.1535 3.87305C20.9292 2.64881 19.6683 2.00003 18.3605 2Z" fill="var(--fill-0, #D52B1E)"/>
</svg>
