<svg preserveAspectRatio="none" width="100%" height="100%" overflow="visible" style="display: block;" viewBox="0 0 288.167 50.6337" fill="none" xmlns="http://www.w3.org/2000/svg">
<g id="Text">
<path id="Vector" d="M0 2.97185C4.41395 2.3264 8.86999 2.01641 13.3303 2.04453C19.9065 2.04453 24.5166 3.03888 27.6714 5.55268C29.0417 6.67139 30.1308 8.09886 30.8507 9.71957C31.5705 11.3403 31.9008 13.1087 31.8149 14.8816C31.7815 17.2963 31.0128 19.6427 29.6125 21.6044C28.2122 23.5662 26.2475 25.049 23.9833 25.8529V26.0541C27.0826 27.3165 28.7822 30.2884 29.9042 34.3887C31.2817 39.4163 32.6702 45.2371 33.5256 46.9576H23.2613C22.5392 45.6952 21.4173 42.0641 20.1731 36.5785C18.929 31.0928 17.0405 29.4058 12.9303 29.4058H9.93104V46.9576H0V2.97185ZM9.93104 22.1549H13.8857C18.8734 22.1549 21.8394 19.6411 21.8394 15.7419C21.8394 11.6416 19.0734 9.58592 14.4744 9.51888C12.9529 9.49001 11.4321 9.60221 9.93104 9.85405V22.1549Z" fill="var(--fill-0, #1E1E1E)"/>
<path id="Vector_2" d="M53.6652 13.8876C56.3576 13.8181 59.0264 14.4086 61.4411 15.6082L64.5293 11.0387L68.0174 13.4854L65.0514 17.9544C66.8307 19.5519 68.2372 21.5248 69.1704 23.7323C70.1037 25.9398 70.5407 28.3274 70.4502 30.7245C70.4502 42.2321 62.0299 47.7177 53.6763 47.7177C51.031 47.7784 48.4111 47.1878 46.0447 45.9972L42.8121 50.6337L39.4795 47.997L42.3789 43.6956C38.8908 40.8467 36.8246 36.4894 36.8246 30.7915C36.8246 20.6134 43.6564 13.8653 53.5874 13.8653L53.6652 13.8876ZM57.2199 22.2223C56.1992 21.439 54.949 21.0185 53.6652 21.0268C48.4664 21.0268 46.5001 26.2555 46.5001 30.758C46.4447 32.5482 46.8503 34.3224 47.6776 35.9085L47.8109 35.9755L57.2199 22.2223ZM50.3104 39.2825C51.2287 40.0944 52.4211 40.5221 53.6429 40.478C58.0863 40.478 60.808 36.6347 60.808 30.9479C60.8389 29.2214 60.5057 27.5079 59.8304 25.9203L59.6304 25.8533L50.3104 39.2825Z" fill="var(--fill-0, #1E1E1E)"/>
<path id="Vector_3" d="M107.72 4.95911e-05V37.3047C107.72 40.9358 107.853 44.7791 107.986 46.9577H99.0994L98.6328 42.1983H98.4662C97.4382 43.9268 95.9689 45.3471 94.2108 46.3118C92.4528 47.2764 90.47 47.7502 88.4685 47.6839C80.8369 47.6839 74.7161 41.1369 74.7161 31.0817C74.7161 20.1663 81.3812 13.8874 89.1572 13.8874C93.1007 13.8874 96.1889 15.2727 97.6441 17.5296H97.7663V4.95911e-05H107.72ZM97.7219 28.3109C97.7219 27.7747 97.6552 27.0485 97.5997 26.5234C97.3466 25.1544 96.6313 23.9154 95.5748 23.0156C94.5182 22.1159 93.1852 21.6106 91.801 21.5852C87.2576 21.5852 84.8915 25.6854 84.8915 30.7801C84.8915 36.2657 87.5909 39.718 91.7344 39.718C93.1084 39.7227 94.4405 39.2421 95.4982 38.36C96.5559 37.4779 97.2721 36.2504 97.5219 34.8915C97.7068 34.1313 97.7927 33.3501 97.7774 32.5676L97.7219 28.3109Z" fill="var(--fill-0, #1E1E1E)"/>
<path id="Vector_4" d="M123.438 33.9314C123.771 38.0987 127.882 40.0762 132.514 40.0762C135.527 40.1162 138.527 39.6711 141.401 38.7579L142.723 45.5731C139.003 46.9801 135.054 47.6736 131.081 47.6176C120.161 47.6176 113.918 41.2047 113.918 31.0825C113.918 22.8819 118.984 13.8211 130.159 13.8211C140.545 13.8211 144.5 21.9546 144.5 29.9652C144.499 31.3166 144.388 32.6655 144.167 33.9985L123.438 33.9314ZM135.213 27.0492C135.213 24.6025 134.158 20.5022 129.559 20.5022C125.349 20.5022 123.638 24.4013 123.371 27.0492H135.213Z" fill="var(--fill-0, #1E1E1E)"/>
<path id="Vector_5" d="M164.084 2.37903H174.004V22.0872H174.193C175.182 20.3666 176.17 18.7354 177.226 17.1936L187.223 2.37903H199.554L184.89 21.3721L200.342 46.9681H188.678L177.825 27.7181L174.004 32.4105V46.9346H164.073L164.084 2.37903Z" fill="var(--fill-0, #1E1E1E)"/>
<path id="Vector_6" d="M217.605 47.6829C208.207 47.6829 200.942 41.471 200.942 31.0136C200.942 20.5563 207.774 13.8863 218.105 13.8863C227.969 13.8863 234.545 20.7015 234.545 30.4215C234.545 42.2643 226.192 47.6829 217.638 47.6829H217.605ZM217.805 40.4767C221.682 40.4767 224.181 36.5775 224.181 30.7567C224.181 25.919 222.348 21.0255 217.805 21.0255C213.006 21.0255 211.229 25.986 211.229 30.7567C211.229 36.3429 213.528 40.4767 217.738 40.4767H217.805Z" fill="var(--fill-0, #1E1E1E)"/>
<path id="Vector_7" d="M240.756 25.261C240.756 20.5016 240.622 17.4403 240.489 14.6137H249.109L249.443 20.5686H249.698C250.277 18.6836 251.424 17.0261 252.98 15.8252C254.536 14.6243 256.425 13.9394 258.385 13.8651C259.088 13.8363 259.791 13.8812 260.485 13.9992V23.4511C259.575 23.2892 258.653 23.2033 257.73 23.1941C254.042 23.1941 251.542 25.1716 250.887 28.2887C250.749 29.0253 250.682 29.7736 250.687 30.5232V46.9578H240.689L240.756 25.261Z" fill="var(--fill-0, #1E1E1E)"/>
<path id="Vector_8" d="M265.616 38.1649C268.264 39.624 271.21 40.4498 274.226 40.5782C277.258 40.5782 278.502 39.4609 278.502 37.8633C278.502 36.2656 277.514 35.3495 273.77 34.154C267.105 31.9195 264.628 28.2773 264.628 24.434C264.628 18.4121 269.693 13.8537 277.714 13.8537C280.837 13.8014 283.934 14.4343 286.789 15.7084L285.012 22.7023C282.863 21.5562 280.479 20.9253 278.047 20.8588C275.614 20.8588 274.226 21.842 274.226 23.4955C274.226 25.149 275.481 25.8753 279.424 27.2048C285.545 29.3164 288.111 32.4335 288.167 37.1929C288.167 43.2037 283.435 47.7061 274.226 47.7061C270.63 47.7704 267.071 46.9779 263.839 45.3935L265.616 38.1649Z" fill="var(--fill-0, #1E1E1E)"/>
</g>
</svg>
