<svg preserveAspectRatio="none" width="100%" height="100%" overflow="visible" style="display: block;" viewBox="0 0 18.5105 18.5105" fill="none" xmlns="http://www.w3.org/2000/svg">
<path id="shape" d="M7.25 0C11.2541 0 14.5 3.24594 14.5 7.25C14.5 8.98189 13.8931 10.5724 12.8799 11.8193L18.291 17.2305C18.5836 17.5234 18.5838 17.9982 18.291 18.291C17.9982 18.5838 17.5234 18.5836 17.2305 18.291L11.8193 12.8799C10.5724 13.8931 8.98189 14.5 7.25 14.5C3.24594 14.5 0 11.2541 0 7.25C0 3.24594 3.24594 0 7.25 0ZM7.25 1.5C4.07436 1.5 1.5 4.07436 1.5 7.25C1.5 10.4256 4.07436 13 7.25 13C10.4256 13 13 10.4256 13 7.25C13 4.07436 10.4256 1.5 7.25 1.5Z" fill="var(--fill-0, #B42419)"/>
</svg>
