<svg xmlns="http://www.w3.org/2000/svg" xmlns:xlink="http://www.w3.org/1999/xlink" viewBox="132.27 761.01 1667.77 215.04"><path fill="#C51914" d="M273.539 959.496L1800.04 960.002L1800.02 975.572C1787.65 976.402 1766.09 975.78 1753.2 975.79L1660.5 975.849L132.459 976.041C132.087 970.771 132.357 965.091 132.468 959.777L273.539 959.496Z"/><path fill="#040404" fill-opacity="0.98823529" d="M134.066 764.295C189.049 764.149 246.818 755.746 249.994 831.085C250.985 854.573 246.389 868.619 230.238 885.841C209.575 903.566 196.618 903.32 170.212 903.447L133.984 903.54L133.839 814.605C133.79 799.431 133.158 779.113 134.066 764.295ZM146.901 891.542C169.731 891.622 197.009 895.001 215.559 882.104C229.502 870.764 233.868 860.07 235.761 842.696C239.293 810.282 225.062 778.864 188.667 776.746C177.621 776.103 166.808 776.382 155.763 776.505C152.387 776.48 149.757 775.956 147.197 777.9C146.089 782.465 146.74 808.892 146.779 815.477C146.951 840.832 146.991 866.187 146.901 891.542Z"/><path fill="#040404" d="M1509.22 764.586L1528.08 764.623C1528.2 809.554 1529.01 859.162 1527.69 903.911L1514.36 903.949C1513.73 894.643 1514.13 879.14 1514.1 869.349L1513.91 803.25C1513.93 795.701 1513.93 790.86 1513.04 783.405C1510.35 789.186 1507.84 795.253 1505.46 801.175C1491.56 835.832 1474.55 869.221 1459.98 903.564C1456.38 903.69 1452.29 903.514 1448.64 903.449C1437.82 878.135 1426.78 852.919 1415.51 827.804C1409.64 814.664 1402.64 797.802 1396.06 785.411L1396.44 903.447C1392.11 903.621 1387.5 903.534 1383.14 903.536C1382.93 896.978 1382.82 889.715 1382.97 883.175C1383.85 844.215 1381.14 803.679 1382.9 764.885L1400.86 764.761C1413.1 787.236 1424.75 818.166 1436.27 841.638C1440.94 851.155 1448.47 873.474 1454.54 881.106C1457.51 879.727 1502.49 776.672 1509.22 764.586Z"/><path fill="#040404" d="M825.553 764.371C829.699 764.263 833.982 764.443 838.138 764.55C837.544 810.367 837.899 857.083 837.802 902.969L823.543 902.838C819.604 896.256 814.817 889.917 809.924 884.016C784.445 853.291 762.653 817.633 737.004 787.285C736.396 813.265 737.393 840.127 737.019 866.143C736.905 874.046 737.652 894.713 736.134 901.357L733.639 902.672C729.923 902.675 727.906 903.035 724.622 901.305C723.451 892.939 723.997 865.241 723.962 855.661L723.345 764.606L737.631 764.802C742.692 772.177 748.049 779.688 753.607 786.695C777.947 817.373 799.977 851.13 824.282 881.706C824.333 869.244 823.307 769.057 825.553 764.371Z"/><path fill="#040404" d="M625.147 761.326C656.771 758.782 674.632 771.355 687.161 799.97L674.994 804.434C666.347 784.788 654.568 774.368 632.409 773.908C561.685 772.442 561.364 896.274 634.121 893.575C661.987 892.541 676.951 873.81 676.539 846.77L659.25 846.843C652.12 846.763 641.171 849.473 636.191 844.478C634.872 840.886 635.15 840.711 635.613 837.008C639.673 833.325 681.754 835.164 689.478 835.217C689.223 851.87 689.199 868.5 689.086 885.15C689.037 892.413 691.268 909.17 678.795 902.948C677.212 897.477 677.605 890.107 677.56 884.229C666.101 895.596 656.359 902.863 639.518 905.282C573.462 914.769 545.22 832.471 580.358 785.901C591.523 771.104 606.659 763.526 625.147 761.326Z"/><path fill="#040404" fill-opacity="0.98823529" d="M1564.85 764.322C1590.52 764.273 1627.08 763.26 1653.36 765.1C1655.49 765.249 1656.06 773.17 1653.68 776.235C1649.88 777.592 1587.63 776.976 1578.41 776.999C1578.58 792.667 1578.63 808.337 1578.56 824.007C1598.99 824.131 1619.44 823.997 1639.87 824.001C1648.14 824.003 1648.05 828.138 1646.69 835.28C1642.44 838.396 1586.91 837.291 1578.36 837.367C1577.82 854.765 1578.21 873.466 1578.26 890.957C1601.17 891.135 1632.32 889.476 1655.46 891.89C1657.93 892.148 1656.78 900.292 1654.92 902.853C1649.13 904.325 1630.37 903.768 1623.38 903.761L1564.43 903.65C1563.49 873.823 1564.91 841.676 1564.26 811.601C1564.11 804.534 1563.77 769.381 1564.85 764.322Z"/><path fill="#040404" d="M435.82 761.321C463.15 760.209 481.257 767.009 489.829 795.33L477.286 798.543C470.15 779.316 457.852 772.399 437.108 773.645C423.257 772.946 405.263 788.806 410.043 803.52C420.782 836.576 487.025 820.122 491.668 862.634C495.184 894.831 468.044 904.033 441.568 905.582C412.754 902.983 401.602 896.561 388.949 870.38L402.919 867.113C408.525 876.291 414.204 885.708 424.86 890.131C442.777 899.136 484.056 890.778 477.354 864.34C469.12 831.858 399.213 846.02 394.805 805.891C391.978 780.159 411.996 764.335 435.82 761.321Z"/><path fill="#040404" d="M1036.5 762.301C1052.29 760.697 1069.02 761.066 1081.73 771.844C1088.52 777.597 1096.72 784.268 1093.22 793.873C1089.93 796.775 1088.51 796.251 1083.74 797.159C1078.38 784.643 1068.95 774.246 1054.54 773.574C1039.45 773.046 1027.44 773.964 1018.62 787.675C1001.91 813.627 1039.56 823.991 1057.84 828.639C1073.49 832.615 1095.61 841.843 1098.21 859.861C1099.53 869.017 1098.19 880.333 1091.99 887.535C1081.69 900.914 1070.81 903.374 1054.89 905.55C1024.96 906.673 1009.18 897.296 995.574 870.532C1000.84 869.997 1005.7 868.656 1010.85 867.422C1021.04 890.164 1040.13 898.089 1064.14 892.121C1071.81 890.215 1078.13 884.722 1081.75 877.802C1099.37 844.177 1039.18 842.519 1021.62 831.502C1012.2 825.623 1004.37 819.164 1001.53 808.176C999.505 800.299 1000.94 790.057 1005.06 783.042C1012.76 770.709 1023.31 765.829 1036.5 762.301Z"/><path fill="#040404" fill-opacity="0.98823529" d="M280.896 764.033L368.445 763.949C368.627 768.07 368.518 772.502 368.504 776.653C344.024 776.49 319.544 776.512 295.064 776.719C294.687 792.225 294.942 808.819 294.9 824.413C317.441 824.759 340.783 824.464 363.386 824.454L363.545 837.151C340.996 837.107 318.447 837.181 295.898 837.374C294.114 841.958 295.239 883.346 295.333 891.313C317.442 891.444 339.553 891.407 361.662 891.202C365.802 891.151 368.618 890.561 371.443 893.325C372.029 897.405 372.194 897.695 371.111 901.56C366.582 904.883 291.672 903.549 281.503 903.536C280.218 880.119 281.293 851.312 280.997 827.377C280.773 809.153 279.854 781.609 280.896 764.033Z"/><path fill="#040404" fill-opacity="0.98823529" d="M1259.11 764.332C1270.9 764.324 1342.47 763.162 1347.28 765.363C1348.79 768.472 1349.65 772.582 1347.81 775.736C1344.2 777.297 1282.57 776.724 1273.48 776.742L1273.5 824.541C1295.49 825.202 1320.23 824.707 1342.43 824.724L1342.43 836.604L1273.29 836.806C1272.49 853.828 1272.99 874.249 1272.98 891.519C1294.66 891.776 1324.01 891.173 1346.21 891.961C1348.74 892.051 1350.9 895.051 1352.11 897.198C1352.01 901.087 1352.58 899.358 1350.31 902.559C1342.61 905.006 1272.47 903.937 1259.55 903.902C1259.78 871.323 1259.79 838.743 1259.6 806.164C1259.54 798.01 1258.42 770.708 1259.11 764.332Z"/><path fill="#040404" fill-opacity="0.98823529" d="M1115.68 764.088C1152.92 762.995 1192.98 763.634 1230.06 765.461C1233.09 765.61 1232.32 772.453 1230.16 775.311C1226.64 777.426 1187.87 776.508 1180.69 776.501L1180.73 851.75C1180.8 869.117 1180.77 886.484 1180.63 903.85L1166.62 903.702C1165.6 863.161 1166.59 817.78 1166.54 776.967C1158.35 776.687 1121.26 777.904 1116.67 775.902C1114.89 772.047 1115.52 768.448 1115.68 764.088Z"/><path fill="#040404" d="M863.832 764.344L878.279 764.398C890.56 784.503 907.226 815.944 920.977 833.535C933.456 816.717 952.21 783.859 964.383 764.888C969.512 764.734 975.154 764.806 980.326 764.772C973.132 777.589 960.143 796.489 951.991 809.395C944.273 822.247 935.916 835.128 927.951 847.881L927.748 903.493L913.825 903.476C913.625 886.218 914.649 863.57 913.457 846.868C907.824 838.454 864.245 768.72 863.832 764.344Z"/><path fill="#040404" fill-opacity="0.98823529" d="M1678.75 764.459C1691.64 764.286 1785.12 762.834 1789.38 765.752C1790.41 766.457 1790.86 768.213 1790.95 769.374C1791.15 771.871 1789.8 773.459 1788.27 775.195C1784.93 777.005 1747.78 776.153 1740.64 776.143L1740.32 855.082L1740.27 903.476L1726.27 903.472C1725.71 890.661 1726.26 873.321 1726.29 860.262L1726.44 776.698C1711.4 776.156 1695.09 777.842 1680.14 776.138C1675.89 775.653 1677.67 767.417 1678.75 764.459Z"/><path fill="#040404" d="M521.244 765.014L535.584 764.932C535.872 770.889 535.775 777.388 535.72 783.366C535.35 823.131 536.578 863.193 535.725 902.925L521.328 903.063L520.973 818.201C520.918 802.195 520.283 780.695 521.244 765.014Z"/></svg>