<svg width="16" height="12" viewBox="0 0 16 12" fill="none" xmlns="http://www.w3.org/2000/svg">
<path fill-rule="evenodd" clip-rule="evenodd" d="M2.0387 1.7116C2.14914 1.47382 2.39091 1.30695 2.66803 1.30695H13.3314C13.6085 1.30695 13.8503 1.47382 13.9607 1.7116L7.99971 5.8843L2.0387 1.7116ZM0.695312 2.0079V2.00006ZM0.695312 2.0079V9.99757C0.695312 11.084 1.58157 11.9703 2.66803 11.9703H13.3314C14.4178 11.9703 15.3041 11.084 15.3041 9.99757V2.00793V2.00006M1.97491 3.2289L7.63281 7.18942C7.8531 7.34363 8.14631 7.34363 8.36661 7.18942L14.0245 3.2289V9.99757C14.0245 10.3773 13.7111 10.6907 13.3314 10.6907H2.66803C2.28828 10.6907 1.97491 10.3773 1.97491 9.99757V3.2289ZM0.695343 1.98904C0.701313 0.907618 1.58525 0.0273438 2.66803 0.0273438H13.3314C14.4143 0.0273438 15.2983 0.907856 15.3041 1.98948" fill="white"/>
</svg>
