<svg width="16" height="17" viewBox="0 0 16 17" fill="none" xmlns="http://www.w3.org/2000/svg">
<path d="M6.375 0.25314C6.61667 0.20314 6.9625 0.148974 7.14583 0.12814C7.32917 0.107307 7.675 0.0906405 7.91667 0.0864738C8.15833 0.0823071 8.55 0.10314 8.79167 0.123974C9.03333 0.148974 9.41667 0.207307 9.64583 0.257307C9.875 0.30314 10.2583 0.407307 10.5 0.482307C10.7417 0.561474 11.1708 0.74064 11.4583 0.87814C11.7458 1.01564 12.1583 1.24897 12.375 1.39064C12.5917 1.53231 12.9417 1.79064 13.1458 1.96564C13.35 2.13647 13.6333 2.39897 13.7708 2.54481C13.9083 2.69064 14.1333 2.94897 14.5208 3.41981L11.4208 6.49064C9.71667 8.17814 8.28333 9.58231 8.23333 9.61147C8.1875 9.64064 8.08333 9.66147 8.0125 9.66564C7.9375 9.66564 7.825 9.64064 7.7625 9.60731C7.69583 9.57397 7.19167 9.09064 5.625 7.51981V7.32397C5.625 7.21147 5.65417 7.07397 5.6875 7.01147C5.725 6.94481 5.80833 6.86147 5.875 6.82397C5.95417 6.77814 6.08333 6.74897 6.4375 6.75314L8.00417 8.31147L9.45417 6.85314C10.4583 5.84897 10.9 5.37814 10.8833 5.33647C10.8667 5.30314 10.7042 5.15731 10.5208 5.01147C10.3375 4.86564 10.0292 4.66564 9.83333 4.56564C9.6375 4.46564 9.35833 4.34481 9.20833 4.29897C9.05833 4.24897 8.825 4.19064 8.6875 4.16564C8.5375 4.13647 8.20833 4.12397 7.85417 4.13647C7.45 4.14897 7.18333 4.17814 6.97917 4.23647C6.82083 4.28231 6.56667 4.36981 6.41667 4.43231C6.26667 4.49481 5.99583 4.64481 5.8125 4.76564C5.62917 4.89064 5.36667 5.09897 5.22917 5.23231C5.09167 5.36981 4.89167 5.59897 4.78333 5.74897C4.67917 5.89897 4.525 6.15314 4.44583 6.31147C4.36667 6.47397 4.2625 6.72397 4.21667 6.87397C4.16667 7.02397 4.10833 7.25731 4.08333 7.39481C4.05417 7.54481 4.04167 7.87397 4.05417 8.22814C4.06667 8.63231 4.09583 8.89897 4.15417 9.10314C4.2 9.26564 4.2875 9.51564 4.35 9.66564C4.4125 9.81564 4.5625 10.0865 4.68333 10.2698C4.80833 10.4531 5.01667 10.7156 5.15 10.8531C5.2875 10.9906 5.51667 11.1906 5.66667 11.299C5.81667 11.4031 6.07083 11.5573 6.22917 11.6365C6.3875 11.7156 6.64167 11.8198 6.79167 11.8656C6.94167 11.9156 7.175 11.974 7.3125 11.999C7.4625 12.0281 7.79167 12.0406 8.14583 12.0281C8.55 12.0156 8.81667 11.9865 9.02083 11.9281C9.18333 11.8823 9.43333 11.7948 9.58333 11.7323C9.73333 11.6698 10.0042 11.5198 10.1875 11.399C10.3708 11.274 10.6333 11.0656 10.7708 10.9323C10.9083 10.7948 11.1083 10.5656 11.2167 10.4156C11.3208 10.2656 11.4667 10.0323 11.5375 9.89481C11.6042 9.75731 11.7042 9.53231 11.75 9.39481C11.8 9.25731 11.8667 9.01981 11.8958 8.86564C11.9333 8.70314 11.9583 8.36147 11.9583 7.56147L15.1042 4.41147L15.2833 4.79897C15.3833 5.01147 15.5292 5.37397 15.6042 5.60314C15.6792 5.83231 15.7792 6.20731 15.825 6.43647C15.875 6.66564 15.9333 7.04897 15.9583 7.29064C15.9792 7.53231 16 7.88647 16 8.08231C16 8.27814 15.9792 8.63231 15.9583 8.87397C15.9333 9.11564 15.875 9.49897 15.825 9.72814C15.7792 9.95731 15.675 10.3406 15.6 10.5823C15.5208 10.824 15.3417 11.2531 15.2042 11.5406C15.0667 11.8281 14.8167 12.2656 14.6458 12.5198C14.4792 12.774 14.1875 13.1531 14.0042 13.3656C13.8167 13.574 13.4917 13.899 13.2833 14.0865C13.0708 14.2698 12.6917 14.5615 12.4375 14.7281C12.1833 14.899 11.7458 15.149 11.4583 15.2865C11.1708 15.424 10.7417 15.599 10.5 15.6781C10.2583 15.7573 9.875 15.8615 9.64583 15.9073C9.41667 15.9573 9.03333 16.0156 8.79167 16.0406C8.55 16.0615 8.19583 16.0823 8 16.0823C7.80417 16.0823 7.45 16.0615 7.20833 16.0406C6.96667 16.0156 6.58333 15.9573 6.35417 15.9073C6.125 15.8615 5.74167 15.7573 5.5 15.6823C5.25833 15.6031 4.82917 15.424 4.54167 15.2865C4.25417 15.149 3.81667 14.899 3.5625 14.7281C3.30833 14.5615 2.92917 14.2698 2.72083 14.0865C2.50833 13.899 2.18333 13.574 1.99583 13.3656C1.8125 13.1531 1.52083 12.774 1.35417 12.5198C1.18333 12.2656 0.933333 11.8281 0.795833 11.5406C0.658333 11.2531 0.483333 10.824 0.404167 10.5823C0.325 10.3406 0.220833 9.95731 0.175 9.72814C0.125 9.49897 0.0666667 9.11564 0.0416667 8.87397C0.0208333 8.63231 0 8.27814 0 8.08231C0 7.88647 0.0208333 7.53231 0.0416667 7.29064C0.0666667 7.04897 0.125 6.66564 0.175 6.43647C0.220833 6.20731 0.325 5.82397 0.4 5.58231C0.479167 5.34064 0.658333 4.91147 0.795833 4.62397C0.933333 4.33647 1.18333 3.89897 1.35417 3.64481C1.52083 3.39064 1.8125 3.01147 1.99583 2.80314C2.18333 2.59064 2.50833 2.26564 2.71667 2.07814C2.92917 1.89481 3.30833 1.60314 3.5625 1.43647C3.81667 1.26564 4.25417 1.01564 4.54167 0.87814C4.82917 0.74064 5.25833 0.56564 5.5 0.486474C5.74167 0.407307 6.13333 0.298974 6.375 0.25314Z" fill="#00297A"/>
</svg>
