<svg width="181" height="60" viewBox="0 0 181 60" fill="none" xmlns="http://www.w3.org/2000/svg">
<g clip-path="url(#clip0_1_20877)">
<g clip-path="url(#clip1_1_20877)">
<path d="M180.843 1.83203H0.0234375V58.1722H180.843V1.83203Z" fill="white"/>
<path d="M56.003 18.1572C57.264 17.9545 59.1555 17.7969 61.2497 17.7969C63.3439 17.7969 65.6407 18.1797 66.9017 19.1705C67.9375 20.0036 68.5005 21.2196 68.5005 22.8184C68.5005 24.4172 66.9242 26.5789 65.4155 27.1193V27.1869C66.6315 27.6823 67.307 28.8532 67.7349 30.452C68.2753 32.4111 68.8158 34.6854 69.1535 35.3609H65.1228C64.8301 34.8655 64.4247 33.4469 63.9068 31.3077C63.4339 29.1234 62.6908 28.538 61.0921 28.5155H59.8986V35.3835H55.9805V18.1797L56.003 18.1572ZM59.9211 25.6557H61.4749C63.4339 25.6557 64.6049 24.6649 64.6049 23.1562C64.6049 21.6475 63.524 20.7467 61.7 20.7242C60.7318 20.7242 60.1913 20.7918 59.9211 20.8593V25.6782V25.6557Z" fill="black"/>
<path d="M80.1641 23.0914L81.3801 21.3125L82.7537 22.2808L81.5828 24.0147C82.9339 25.1856 83.6995 26.897 83.6995 29.0137C83.6995 33.5173 80.3893 35.6565 77.1017 35.6565C73.8141 35.6565 74.985 35.4538 74.1068 34.981L72.8458 36.8274L71.5623 35.7916L72.7107 34.1027C71.3371 32.9994 70.5039 31.288 70.5039 29.0587C70.5039 25.073 73.2061 22.4384 77.1017 22.4384C80.9973 22.4384 79.3085 22.6411 80.1867 23.1139L80.1641 23.0914ZM78.4753 25.681C78.0925 25.3883 77.6421 25.2081 77.0792 25.2081C75.03 25.2081 74.2644 27.2573 74.2644 29.0137C74.2644 30.7701 74.3995 30.4548 74.7373 31.0403H74.7823C74.7823 31.0628 78.4753 25.681 78.4753 25.681ZM75.7506 32.3689C76.1109 32.7066 76.5838 32.8417 77.0792 32.8417C78.8356 32.8417 79.8939 31.333 79.8939 29.1263C79.8939 26.9195 79.7813 27.7527 79.5111 27.1672H79.4436C79.4436 27.1447 75.7731 32.3914 75.7731 32.3914L75.7506 32.3689Z" fill="black"/>
<path d="M98.494 16.9874V31.5791C98.494 32.9977 98.539 34.5064 98.6066 35.3621H95.1163L94.9361 33.4931H94.8911C94.0804 34.9117 92.5717 35.6323 90.9279 35.6323C87.933 35.6323 85.5236 33.0652 85.5236 29.1471C85.5011 24.8687 88.1582 22.4142 91.1981 22.4142C94.2381 22.4142 93.9678 22.9546 94.5308 23.8328H94.5758V16.9648H98.5165L98.494 16.9874ZM94.5533 28.0662C94.5533 27.8636 94.5308 27.5708 94.5083 27.3682C94.2831 26.3098 93.4274 25.4316 92.2114 25.4316C90.4325 25.4316 89.4868 27.0304 89.4868 29.0345C89.4868 31.0386 90.5451 32.5248 92.1889 32.5248C93.8327 32.5248 94.2381 31.7592 94.4632 30.6333C94.5308 30.3406 94.5758 30.0703 94.5758 29.7326V28.0662H94.5533Z" fill="black"/>
<path d="M104.664 30.2954C104.799 31.9167 106.398 32.7048 108.244 32.7048C110.091 32.7048 110.676 32.5247 111.734 32.1869L112.252 34.844C110.969 35.3619 109.37 35.6096 107.681 35.6096C103.38 35.6096 100.926 33.1326 100.926 29.1695C100.926 25.2063 102.907 22.4141 107.321 22.4141C111.734 22.4141 112.973 25.5891 112.973 28.7191C112.973 31.8491 112.905 29.9801 112.838 30.2729H104.686L104.664 30.2954ZM109.302 27.5932C109.302 26.6249 108.897 25.0262 107.073 25.0262C105.249 25.0262 104.754 26.5349 104.641 27.5932H109.302Z" fill="black"/>
<path d="M120.675 17.9336H124.593V25.6348H124.661C125.043 24.9592 125.471 24.3512 125.854 23.7207L129.817 17.9336H134.659L128.894 25.3645L134.974 35.3851H130.358L126.079 27.864L124.57 29.7105V35.4076H120.652V17.9561L120.675 17.9336Z" fill="black"/>
<path d="M148.483 28.8993C148.483 33.538 145.195 35.6547 141.795 35.6547C138.395 35.6547 135.242 33.2227 135.242 29.1244C135.242 25.0262 137.944 22.4141 141.998 22.4141C146.051 22.4141 148.46 25.0712 148.46 28.8767L148.483 28.8993ZM139.318 29.0344C139.318 31.2186 140.219 32.8399 141.908 32.8399C143.596 32.8399 144.407 31.3087 144.407 29.0344C144.407 26.76 143.686 25.2288 141.908 25.2288C140.129 25.2288 139.318 27.1654 139.318 29.0344Z" fill="black"/>
<path d="M150.917 26.8726C150.917 25.0036 150.872 23.7877 150.805 22.7068H154.205L154.34 25.0262H154.453C155.106 23.1797 156.659 22.4141 157.875 22.4141C159.091 22.4141 158.416 22.4141 158.709 22.4591V26.1521C158.416 26.107 158.078 26.0395 157.65 26.0395C156.209 26.0395 155.218 26.8051 154.948 28.0211C154.903 28.2688 154.88 28.584 154.88 28.8993V35.3169H150.94V26.8276L150.917 26.8726Z" fill="black"/>
<path d="M160.733 31.9176C161.454 32.368 162.963 32.8859 164.133 32.8859C165.304 32.8859 165.822 32.4805 165.822 31.8275C165.822 31.1745 165.439 30.8592 163.953 30.3864C161.341 29.5082 160.328 28.0895 160.35 26.5808C160.35 24.2164 162.377 22.4375 165.507 22.4375C168.637 22.4375 168.299 22.7753 169.087 23.1581L168.389 25.8828C167.826 25.5675 166.723 25.1622 165.642 25.1622C164.561 25.1622 164.133 25.545 164.133 26.198C164.133 26.851 164.629 27.0987 166.183 27.6392C168.592 28.4723 169.605 29.6883 169.628 31.5573C169.628 33.9217 167.759 35.6556 164.133 35.6556C160.508 35.6556 161.003 35.2953 160.035 34.7774L160.733 31.9626V31.9176Z" fill="black"/>
<path d="M33.7082 13.0898H22.4492V46.8669H33.7082V13.0898Z" fill="#D52B1E"/>
<path d="M44.9685 24.3477H11.1914V35.6067H44.9685V24.3477Z" fill="#D52B1E"/>
</g>
</g>
<defs>
<clipPath id="clip0_1_20877">
<rect width="181" height="60" fill="white"/>
</clipPath>
<clipPath id="clip1_1_20877">
<rect width="181" height="56.3852" fill="white" transform="translate(0 1.80859)"/>
</clipPath>
</defs>
</svg>
