<svg width="64" height="16" viewBox="0 0 64 16" fill="none" xmlns="http://www.w3.org/2000/svg">
<path fill-rule="evenodd" clip-rule="evenodd" d="M64 3.83839C63.2798 1.09068 61.5314 0 59.1448 0C57.2111 0 54.7843 1.09068 54.7843 3.71715C54.7843 5.41401 55.9566 6.7476 57.8694 7.09117L59.6797 7.41418C60.9142 7.63629 61.2639 8.1011 61.2639 8.72741C61.2639 9.43447 60.5028 9.83844 59.3714 9.83844C57.8904 9.83844 56.9646 9.31324 56.8205 7.83828L54.2082 8.24247C54.6193 11.0908 57.17 12.2629 59.4739 12.2629C61.6547 12.2629 63.9793 11.0101 63.9793 8.48494C63.9793 6.76751 62.9299 5.51533 60.9756 5.15119L58.9805 4.78792C57.8694 4.58593 57.4994 4.04038 57.4994 3.51517C57.4994 2.84837 58.2192 2.42449 59.2067 2.42449C60.4617 2.42449 61.3461 2.84837 61.3873 4.24236L64 3.83839ZM5.925 8.16133L8.6399 0.302914H11.8283L7.09686 11.9594H4.73146L0 0.303133H3.18843L5.925 8.16133ZM22.6083 3.63638C22.6083 4.56556 21.8678 5.212 21.0036 5.212C20.1397 5.212 19.3993 4.56556 19.3993 3.63638C19.3993 2.70698 20.1397 2.06076 21.0036 2.06076C21.8678 2.06076 22.6086 2.70698 22.6086 3.63638H22.6083ZM23.1021 7.75776C22.0321 9.13113 20.9008 10.0806 18.9053 10.0807C16.8693 10.0807 15.285 8.86857 14.0507 7.09097C13.5569 6.36355 12.7958 6.20205 12.2402 6.58589C11.726 6.9496 11.6029 7.71728 12.0757 8.38407C13.783 10.9497 16.1487 12.4444 18.9051 12.4444C21.4357 12.4444 23.4107 11.2324 24.9533 9.21215C25.5291 8.46482 25.5086 7.69714 24.9533 7.27282C24.4388 6.86841 23.6777 7.01043 23.1021 7.75776ZM30.2 6.1009C30.2 8.48491 31.5989 9.73753 33.1625 9.73753C34.6434 9.73753 36.1659 8.56566 36.1659 6.1009C36.1659 3.67642 34.6434 2.50499 33.1828 2.50499C31.5989 2.50499 30.2 3.61602 30.2 6.1009ZM30.2 1.9194V0.32299H27.2996V16H30.2V10.424C31.1669 11.7171 32.4217 12.2629 33.8409 12.2629C36.4951 12.2629 39.0868 10.2021 39.0868 5.95978C39.0868 1.89883 36.392 0.000205994 34.0879 0.000205994C32.257 0.000205994 31.0025 0.828283 30.2 1.9194ZM44.1276 6.1009C44.1276 8.48491 45.5262 9.73753 47.0898 9.73753C48.5708 9.73753 50.093 8.56566 50.093 6.1009C50.093 3.67642 48.5708 2.50499 47.1102 2.50499C45.5262 2.50499 44.1273 3.61602 44.1273 6.1009H44.1276ZM44.1276 1.9194V0.32299H44.1273H41.227V16H44.1273V10.424C45.0943 11.7171 46.349 12.2629 47.7683 12.2629C50.4222 12.2629 53.0142 10.2021 53.0142 5.95978C53.0142 1.89883 50.3194 0.000205994 48.0152 0.000205994C46.1843 0.000205994 44.9298 0.828283 44.1276 1.9194Z" fill="white"/>
</svg>
