<?xml version="1.0" encoding="utf-8" ?><svg xmlns="http://www.w3.org/2000/svg" xmlns:xlink="http://www.w3.org/1999/xlink" width="1024" height="1024" viewBox="0 0 1024 1024"><path fill="#D03221" d="M147.043 564.8C138.561 559.496 135.996 552.949 135.938 543.281C135.789 518.442 135.937 493.586 135.87 468.75C135.542 409.73 135.528 350.708 135.829 291.687L135.875 214.08C135.868 201.737 135.584 188.575 136.23 176.237C136.414 172.717 139.34 167.67 141.877 165.2C147.204 160.012 152.328 159.22 159.435 159.266C177.509 159.385 195.588 159.417 213.659 159.392L352.827 159.251L422.375 159.036C435.585 159.037 451.014 158.386 464.065 160.532C470.24 161.548 477.054 170.305 477.531 176.511C478.428 188.181 478.098 200.295 478.172 212.103L478.375 287.142L478.152 542.42C486.838 546.61 505.812 559.278 509.473 568.781C512.524 576.702 507.08 583.484 500.09 586.404C496.741 587.972 491.17 587.723 487.451 588.029C471.255 588.275 455.103 587.988 438.891 588.085C386.142 588.424 333.392 588.412 280.644 588.05L224.712 588.109C211.82 588.153 190.474 589.153 178.279 586.736C171.684 585.43 151.876 569.67 147.043 564.8Z"/><path fill="#E47E65" d="M478.152 542.42C486.838 546.61 505.812 559.278 509.473 568.781C512.524 576.702 507.08 583.484 500.09 586.404C496.741 587.972 491.17 587.723 487.451 588.029C471.255 588.275 455.103 587.988 438.891 588.085C386.142 588.424 333.392 588.412 280.644 588.05L224.712 588.109C211.82 588.153 190.474 589.153 178.279 586.736C171.684 585.43 151.876 569.67 147.043 564.8C148.127 565.013 149.217 565.191 150.312 565.334C159.865 566.628 182.302 566.035 192.633 566.035L273.699 566.027L392.418 566.046C415.498 566.06 438.805 566.516 461.831 565.419C473.73 564.852 477.018 551.927 478.152 542.42Z"/><path fill="#B02819" d="M184.933 387.432C182.914 383.197 186.556 369.956 188.462 365.48C192.835 355.263 201.103 347.213 211.433 343.115C222.373 338.8 234.577 338.992 245.375 343.65C259.991 349.986 264.229 359.401 269.636 373.157C271.609 377.881 272.761 381.193 274.036 386.225C283.041 421.77 248.336 446.253 216.13 433.442C203.705 428.499 193.241 416 188.315 403.277C186.359 398.206 185.217 392.859 184.933 387.432Z"/><path fill="#791E11" d="M269.636 373.157C271.609 377.881 272.761 381.193 274.036 386.225C283.041 421.77 248.336 446.253 216.13 433.442C203.705 428.499 193.241 416 188.315 403.277C186.359 398.206 185.217 392.859 184.933 387.432C186.295 389.27 189.124 399.124 192.038 403.429C198.117 412.413 207.375 418.589 217.86 420.924C229.262 423.482 241.213 421.363 251.039 415.04C261.349 408.345 268.547 397.198 269.036 384.751C269.154 381.727 268.953 375.732 269.636 373.157Z"/><path fill="#B02819" d="M347.801 392.685C343.361 377.64 347.746 361.376 359.147 350.6C370.548 339.825 387.034 336.365 401.805 341.645C416.577 346.926 427.132 360.053 429.118 375.614C437.956 399.584 437.276 424.958 409.799 435.181C399.001 439.265 387.012 438.818 376.549 433.941C364.07 428.047 354.958 416.16 350.441 403.328C349.234 399.87 348.35 396.307 347.801 392.685Z"/><path fill="#791E11" d="M429.118 375.614C437.956 399.584 437.276 424.958 409.799 435.181C399.001 439.265 387.012 438.818 376.549 433.941C364.07 428.047 354.958 416.16 350.441 403.328C349.234 399.87 348.35 396.307 347.801 392.685C353.949 413.524 375.075 426.144 396.338 421.68C417.602 417.216 431.869 397.166 429.118 375.614Z"/><path fill="#B02819" d="M184.612 231.986C184.974 200.468 220.11 182.04 247.382 195.765C260.649 202.443 265.228 212.187 269.703 225.525C279.781 248.734 276.914 273.014 251.418 283.76C240.189 288.494 227.528 288.515 216.283 283.817C197.77 276.129 188.256 258.945 185.162 239.92C184.679 236.575 184.497 235.397 184.612 231.986Z"/><path fill="#791E11" d="M186.035 239.616C189.237 254.721 201.545 266.717 216.064 270.762C238.909 277.127 265.805 263.707 268.493 238.871C268.898 235.123 268.676 228.866 269.703 225.525C279.781 248.734 276.914 273.014 251.418 283.76C240.189 288.494 227.528 288.515 216.283 283.817C197.77 276.129 188.256 258.945 185.162 239.92C184.679 236.575 184.497 235.397 184.612 231.986C185.653 233.668 185.97 237.595 186.035 239.616Z"/><path fill="#B02819" d="M344.917 233.33C345.803 226.139 346.15 221.67 349.341 214.927C354.089 204.854 362.699 197.122 373.223 193.48C384.077 189.659 395.997 190.252 406.418 195.132C420.835 202.024 425.304 212.204 430.262 226.124C439.706 249.702 436.767 273.98 410.673 284.169C399.447 288.608 386.915 288.387 375.853 283.556C358.857 275.943 348.645 259.336 345.592 241.481C345.427 238.788 345.151 236.024 344.917 233.33Z"/><path fill="#791E11" d="M430.262 226.124C439.706 249.702 436.767 273.98 410.673 284.169C399.447 288.608 386.915 288.387 375.853 283.556C358.857 275.943 348.645 259.336 345.592 241.481C345.427 238.788 345.151 236.024 344.917 233.33L345.676 232.804C346.314 235.131 346.402 238.175 346.584 240.637C347.479 244.249 348.874 247.717 350.729 250.943C356.414 260.916 365.902 267.794 376.948 270.712C388.165 273.697 400.108 272.101 410.148 266.276C419.781 260.564 427.7 250.49 428.829 239.075C429.222 235.102 429.148 229.802 430.262 226.124Z"/><path fill="#D03221" d="M541.565 519.627C532.182 508.002 533.618 503.86 533.627 489.196C533.635 475.889 533.351 462.364 534.068 449.061C535.507 427.84 561.021 432.008 575.809 432.013L618.403 432.016L744.688 432.028L809.825 432.051C820.692 432.047 832.227 431.563 842.966 432.578C851.128 433.349 858.778 443.69 859.381 451.517C860.076 460.544 859.978 469.414 859.98 478.446L859.972 518.094C859.968 564.514 859.55 611.774 860.052 658.127C860.65 698.641 860.793 739.161 860.481 779.678L860.484 815.582C860.494 824.855 860.614 836.676 859.482 845.83L859.527 846.259C862.944 881.384 843.977 878.694 817.213 878.484L784.72 878.447L674.839 878.434L592.413 878.404C581.961 878.399 571.487 878.379 561.033 878.371C553.67 878.365 547.373 878.224 541.631 872.799C533.883 865.478 533.749 855.051 533.622 845.213C532.983 818.792 533.42 790.425 533.376 763.92C535.682 765.099 538.018 766.219 540.382 767.277C560.264 776.049 582.444 769.392 591.17 748.823C595.028 739.543 595.083 729.118 591.322 719.797C587.405 710.18 579.767 702.555 570.143 698.655C556.754 693.155 546.662 695.635 533.969 701.004C533.097 692.422 533.142 667.271 533.63 658.04C534.01 654.922 533.649 648.581 533.713 645.014C533.994 629.179 532.813 612.252 534.611 596.572C535.149 591.875 538.318 587.008 542.329 584.527C553.818 577.422 563.943 587.979 574.32 590.108C585.708 592.367 595.547 589.207 605.043 583.429C618.705 575.117 628.04 549.772 618.226 535.791C607.664 525.282 590.429 518.32 575.85 523.31C561.197 528.326 553.868 533.164 541.565 519.627Z"/><path fill="#FDB396" d="M533.63 658.04L609.273 658.089C622.722 658.069 636.247 657.849 649.675 658.293C651.839 658.365 657.387 659.343 658.94 660.434C669.43 667.799 661.26 680.909 658.387 689.212C653.993 701.914 658.308 716.783 667.186 726.286C674.214 733.882 684.021 738.306 694.368 738.547C704.682 738.822 714.67 734.922 722.067 727.73C729.651 720.318 733.957 710.184 734.029 699.58C734.03 696.699 733.657 692.383 732.75 689.645C729.554 680.403 721.985 671.434 730.354 662.286C732.454 659.99 735.347 658.893 738.376 658.642C751.875 657.522 766.274 657.99 779.794 657.997L860.052 658.127C860.65 698.641 860.793 739.161 860.481 779.678L860.484 815.582C860.494 824.855 860.614 836.676 859.482 845.83L859.527 846.259C862.944 881.384 843.977 878.694 817.213 878.484L784.72 878.447L674.839 878.434L592.413 878.404C581.961 878.399 571.487 878.379 561.033 878.371C553.67 878.365 547.373 878.224 541.631 872.799C533.883 865.478 533.749 855.051 533.622 845.213C532.983 818.792 533.42 790.425 533.376 763.92C535.682 765.099 538.018 766.219 540.382 767.277C560.264 776.049 582.444 769.392 591.17 748.823C595.028 739.543 595.083 729.118 591.322 719.797C587.405 710.18 579.767 702.555 570.143 698.655C556.754 693.155 546.662 695.635 533.969 701.004C533.097 692.422 533.142 667.271 533.63 658.04Z"/><path fill="#E47E65" d="M533.622 845.213C534.248 850.147 537.181 853.453 540.897 856.641C544.623 859.838 549.816 860.022 554.704 860.189C575.59 860.902 596.838 860.523 617.766 860.519L734.475 860.518L806.307 860.514C819.031 860.513 832.125 861.006 844.748 859.684C852.743 858.847 856.215 851.992 859.482 845.83L859.527 846.259C862.944 881.384 843.977 878.694 817.213 878.484L784.72 878.447L674.839 878.434L592.413 878.404C581.961 878.399 571.487 878.379 561.033 878.371C553.67 878.365 547.373 878.224 541.631 872.799C533.883 865.478 533.749 855.051 533.622 845.213Z"/><path fill="#B02819" d="M541.565 519.627C557.355 519.633 552.39 518.024 564.933 512.61C580.249 505.822 598.158 509.092 610.087 520.855C614.137 524.893 617.647 529.995 618.226 535.791C607.664 525.282 590.429 518.32 575.85 523.31C561.197 528.326 553.868 533.164 541.565 519.627Z"/><path fill="#D03221" d="M234.272 849.518C233.958 830.171 234.354 811.12 234.407 791.792L234.457 694.936L234.411 654.508C234.319 643.918 233.399 633.149 235.29 622.777C236.95 613.666 245.609 609.252 254.191 609.143C271.187 608.927 288.335 609.022 305.33 609.034L401.133 609.03L459.698 609.018C468.222 609.018 484.547 607.896 492.331 609.937C495.475 610.762 498.09 612.32 499.704 615.198C507.528 629.152 497.499 686.166 505.426 698.759C507.6 702.215 510.986 704.358 514.939 705.237C521.674 706.736 528.334 704.657 533.969 701.004C546.662 695.635 556.754 693.155 570.143 698.655C579.767 702.555 587.405 710.18 591.322 719.797C595.083 729.118 595.028 739.543 591.17 748.823C582.444 769.392 560.264 776.049 540.382 767.277C538.018 766.219 535.682 765.099 533.376 763.92C521.938 755.792 505.795 758.964 503.417 774.117C502.953 777.071 502.93 780.012 502.837 782.992C502.159 804.754 502.868 826.593 502.548 848.349C502.682 861.759 503.026 876.52 485.68 878.445C477.622 879.34 468.433 878.912 460.291 878.901L415.306 878.818L264.755 878.579C257.028 878.528 246.777 879.056 241.073 873.124C235.159 866.975 233.98 857.686 234.272 849.518Z"/><path fill="#B02819" d="M234.272 849.518C239.801 854.868 243.104 860.444 251.684 860.479C269.114 860.55 286.544 860.529 303.973 860.53L408.242 860.523L461.018 860.55C470.14 860.552 479.879 860.773 489.018 859.978C495.66 859.4 499.088 849.61 502.548 848.349C502.682 861.759 503.026 876.52 485.68 878.445C477.622 879.34 468.433 878.912 460.291 878.901L415.306 878.818L264.755 878.579C257.028 878.528 246.777 879.056 241.073 873.124C235.159 866.975 233.98 857.686 234.272 849.518Z"/><path fill="#B02819" d="M606.539 142.567C608.539 140.417 610.097 137.382 612.093 135.303C627.775 118.976 651.724 114.479 669.604 130.151C672.735 132.895 675.155 136.814 678.702 139.09C696.904 151.795 719.044 165.648 738.027 178.132C744.576 181.229 752.058 184.299 757.496 189.179C759.721 191.176 761.808 193.159 764.11 195.111C773.699 202.14 799.857 215.317 803.12 224.237L803.085 224.646C802.573 231.237 802.994 244.067 802.994 251.166L803.076 306.105C803.105 315.728 803.499 325.748 802.408 335.275C801.592 342.412 789.571 348.052 783.666 351.856L752.176 372.133L697.318 407.389C690.666 411.643 667.183 428.103 661.04 428.348L660.439 428.336L659.495 428.304C657.003 428.236 655.13 428.122 652.959 426.732C645.857 422.183 638.874 417.436 631.828 412.801L586.18 382.634L534.073 348.093C523.957 341.338 508.77 332.727 501.19 323.674C499.426 305.121 499.915 283.03 500 264.097C500.078 247.048 499.366 226.841 500.139 210.207C504.692 202.41 523.363 192.051 531.743 187.016C535.86 183.341 538.295 177.199 542.651 172.802C552.153 163.213 564.005 167.17 574.784 163.096L606.539 142.567Z"/><path fill="#791E11" d="M803.12 224.237L803.085 224.646C802.573 231.237 802.994 244.067 802.994 251.166L803.076 306.105C803.105 315.728 803.499 325.748 802.408 335.275C801.592 342.412 789.571 348.052 783.666 351.856L752.176 372.133L697.318 407.389C690.666 411.643 667.183 428.103 661.04 428.348C660.067 391.991 660.73 351.198 660.934 314.585C671.886 310.511 682.324 303.092 692.215 296.77L724.555 276.28L767.373 249.253C773.965 245.121 800.355 229.673 803.12 224.237Z"/><path fill="#D03221" d="M606.539 142.567C608.539 140.417 610.097 137.382 612.093 135.303C627.775 118.976 651.724 114.479 669.604 130.151C672.735 132.895 675.155 136.814 678.702 139.09C677.413 142.944 678.682 145.827 678.17 149.382C667.01 176.857 618.97 176.248 608.302 150.059C607.613 147.43 607.962 145.194 606.539 142.567Z"/><path fill="#D03221" d="M738.027 178.132C744.576 181.229 752.058 184.299 757.496 189.179C759.721 191.176 761.808 193.159 764.11 195.111C763.31 198.255 763.551 202.506 763.576 205.855C753.531 233.32 705.509 233.468 693.201 206.52C691.671 201.41 694.472 195.148 697.593 191.194C708.161 177.808 723.47 179.93 738.027 178.132Z"/><path fill="#D03221" d="M574.784 163.096C576.594 164.528 579.856 165.824 582.075 166.519C593.135 169.983 603.513 176.969 603.186 189.96C600.849 197.953 597.144 203.444 589.503 207.366C571.324 216.696 541.708 214.418 533.673 192.559C533.035 189.899 533.532 188.936 531.743 187.016C535.86 183.341 538.295 177.199 542.651 172.802C552.153 163.213 564.005 167.17 574.784 163.096Z"/><path fill="#791E11" d="M763.576 205.855C765.764 211.593 766.109 225.976 763.467 231.604C752.231 255.534 703.1 254.264 693.351 229.627C691.825 225.77 691.254 210.316 693.201 206.52C705.509 233.468 753.531 233.32 763.576 205.855Z"/><path fill="#791E11" d="M603.186 189.96C605.21 194.301 605.149 211.744 603.377 216.228C593.803 240.461 545.594 240.564 534.33 217.881C532.36 213.914 531.693 196.212 533.673 192.559C541.708 214.418 571.324 216.696 589.503 207.366C597.144 203.444 600.849 197.953 603.186 189.96Z"/><path fill="#791E11" d="M678.17 149.382C680.252 153.682 680.415 168.57 678.594 172.939C668.801 196.422 619.329 195.743 608.792 173.201C606.797 168.933 606.72 154.791 608.302 150.059C618.97 176.248 667.01 176.857 678.17 149.382Z"/><path fill="#D03221" d="M618.628 251.128C615.916 234.469 631.051 225.055 645.372 222.902C662.753 220.29 686.933 226.28 690.009 246.639C690.242 248.232 690.12 249.502 689.782 251.058C691.873 255.137 691.658 270.19 690.236 274.401C679.96 304.82 610.877 298.179 617.957 260.224C618.523 257.191 617.604 254.358 618.628 251.128Z"/><path fill="#791E11" d="M618.628 251.128C621.959 257.499 625.146 261.669 631.371 265.448C649.014 276.158 682.181 272.939 689.782 251.058C691.873 255.137 691.658 270.19 690.236 274.401C679.96 304.82 610.877 298.179 617.957 260.224C618.523 257.191 617.604 254.358 618.628 251.128Z"/></svg>