<?xml version="1.0" encoding="utf-8" ?><svg xmlns="http://www.w3.org/2000/svg" xmlns:xlink="http://www.w3.org/1999/xlink" width="1024" height="1024" viewBox="0 0 1024 1024"><path fill="#E9391D" d="M692.689 472.251C687.227 485.824 676.636 504.222 670.144 518.185C653.477 554.039 639.635 586.764 629.35 624.943C627.861 630.432 626.516 635.959 625.315 641.518C624.177 646.79 623.249 652.631 621.346 657.669C620.332 660.351 615.729 660.385 613.378 660.425C606.016 660.506 598.643 660.324 591.278 660.345C567.293 660.49 543.307 660.49 519.322 660.345L455.845 660.415C441.507 660.468 427.105 660.506 412.762 660.419C409.698 660.283 406.446 660.025 403.527 659.062C402.7 658.789 401.933 657.015 401.706 656.222C399.903 649.902 398.953 643.186 397.504 636.772C395.181 626.701 392.463 616.726 389.355 606.869C379.223 573.778 363.867 539.883 348.928 508.659C345.683 501.773 342.342 494.933 338.903 488.142C336.539 483.508 331.442 476.196 332.25 471.086C335.537 466.226 348.385 453.401 352.98 448.397C364.947 435.35 376.496 421.925 387.608 408.142C428.689 357.11 460.725 301.169 493.055 244.59C495.88 239.645 499.59 237.186 504.196 241.904C504.971 243.772 505.078 245.347 505.15 247.336C505.765 264.498 505.684 446.087 504.606 448.185C504.498 448.394 504.333 448.569 504.196 448.761C483.123 453.116 472.245 472.376 476.617 492.972C478.59 502.26 484.307 510.324 492.419 515.26C500.84 520.472 512.287 521.9 521.828 519.415C530.985 516.992 538.811 511.044 543.597 502.871C548.635 494.235 549.963 483.927 547.279 474.297C544.771 465.016 538.626 457.14 530.235 452.449C527.292 450.801 523.152 449.162 519.796 448.729C518.962 448.096 518.35 447.771 518.313 446.513C517.781 428.382 518.354 410.26 518.322 392.111C518.141 360.77 518.131 329.428 518.292 298.087C518.293 280.942 517.767 263.878 518.423 246.719C518.523 244.107 518.489 243.382 519.802 241.157C524.241 238.385 527.988 239.915 530.39 244.231C538.858 259.446 547.716 274.731 556.453 289.761C582.132 334.756 611.499 377.543 644.25 417.684C654.027 429.373 664.064 440.843 674.354 452.084C678.785 456.889 689.3 467.582 692.689 472.251Z"/><path fill="#E9391D" d="M402.308 758.719C396.398 759.01 390.246 758.826 384.402 758.984C370.421 759.362 362.275 757.296 362.426 741.286C362.575 725.559 362.516 709.706 362.367 693.959C362.32 688.993 363.323 683.627 367.026 680.05C368.853 678.301 371.235 677.247 373.758 677.071C388.001 676.209 409.794 676.903 424.502 676.923L519.078 676.947L607.282 676.949L635.138 676.903C645.173 676.879 661.161 674.793 662.003 688.665C662.329 697.025 663.213 709.062 662.546 717.244C661.672 727.955 665.915 749.869 656.573 756.442C651.638 759.913 628.251 759.405 622.112 758.702L629.488 847.344L632.227 879.973C632.682 885.869 633.146 891.668 633.293 897.588C633.466 904.554 629.03 904.878 623.253 904.886C607.193 904.909 591.126 904.879 575.064 904.875L478.164 904.872L424.508 904.844C415.11 904.875 405.651 905.092 396.272 904.743C392.084 904.588 390.417 901.422 390.524 897.607C390.713 890.918 391.408 884.223 391.95 877.551L395.169 839.008C397.496 812.972 399.26 784.401 402.308 758.719Z"/><path fill="#B32315" d="M402.308 758.719C396.398 759.01 390.246 758.826 384.402 758.984C370.421 759.362 362.275 757.296 362.426 741.286C362.575 725.559 362.516 709.706 362.367 693.959C362.32 688.993 363.323 683.627 367.026 680.05C368.853 678.301 371.235 677.247 373.758 677.071C388.001 676.209 409.794 676.903 424.502 676.923L519.078 676.947L607.282 676.949L635.138 676.903C645.173 676.879 661.161 674.793 662.003 688.665C662.329 697.025 663.213 709.062 662.546 717.244C661.672 727.955 665.915 749.869 656.573 756.442C651.638 759.913 628.251 759.405 622.112 758.702C617.222 758.168 602.006 758.545 596.274 758.551L543.299 758.583L453.167 758.546C436.686 758.539 418.696 758.178 402.308 758.719Z"/><path fill="#B32315" d="M552.076 185.305C551.947 181.821 551.579 158.94 552.236 157.114L552.558 159.131C554.482 159.828 578.288 159.2 582.268 159.197L715.228 159.309L748.438 159.303C751.133 159.299 761.284 159.108 763.467 159.501C763.471 166.87 763.73 175.896 763.43 183.126C758.593 183.655 751.301 183.435 746.252 183.431L717.581 183.4C688.668 183.581 659.753 183.479 630.842 183.097C697.704 203.945 761.152 262.921 792.386 324.63C813.351 366.048 822.902 403.075 827.193 448.869C822.341 448.443 808.588 448.87 803.136 448.85C801.335 437.649 800.044 426.221 797.768 415.075C789.461 372.599 771.716 332.531 745.846 297.833C709.058 247.969 650.895 209.667 591.422 193.12C577.848 189.343 565.905 187.388 552.076 185.305Z"/><path fill="#B32315" d="M260.424 159.397L398.528 159.306C421.409 159.283 449.606 158.514 472.152 159.401C472.177 167.558 472.442 177.247 472.054 185.278C466.819 186.618 460.751 186.854 455.331 187.866C443.187 190.152 431.193 193.172 419.415 196.911C354.772 217.693 299.644 260.818 263.91 318.557C242.228 353.756 229.295 394.352 223.487 435.126C222.909 439.19 222.483 443.372 221.738 447.392L222.141 448.438C223.494 448.754 223.49 448.747 224.88 448.699L224.042 449.099C216.358 448.541 206.152 448.973 197.914 448.695C197.833 442.462 199.262 432.957 200.109 426.629C205.283 387.359 217.98 349.456 237.506 314.993C264.647 266.885 304.319 227.032 352.304 199.673C364.577 192.826 377.102 186.742 390.675 182.893C373.387 183.903 353.849 183.434 336.364 183.427C311.058 183.504 285.753 183.436 260.448 183.22C260.131 175.282 260.123 167.335 260.424 159.397Z"/><path fill="#E9391D" d="M472.152 159.401C471.927 149.55 469.527 133.867 477.178 126.377C483.984 119.713 496.874 120.161 506.121 120.72C519.11 121.505 538.403 117.24 547.855 127.596C553.79 134.099 552.598 148.491 552.236 157.114C551.579 158.94 551.947 181.821 552.076 185.305C552.101 185.719 552.123 186.133 552.143 186.547C553.55 215.987 519.502 206.655 500.917 208.358C483.673 209.939 472.11 204.539 472.054 185.278C472.442 177.247 472.177 167.558 472.152 159.401Z"/><path fill="#E9391D" d="M197.914 448.695C206.152 448.973 216.358 448.541 224.042 449.099L224.88 448.699C235.224 448.482 241.869 446.625 248.357 455.998C248.412 456.523 248.461 457.049 248.504 457.575C249.567 470.471 248.45 485.366 248.763 498.455C248.295 509.796 252.058 525.775 235.532 526.332C222.396 526.604 208.914 526.525 195.819 526.521C179.602 526.516 168.18 528.884 168.97 507.774C169.533 490.876 167.642 472.643 170 455.987C171.311 446.73 191.8 448.581 197.914 448.695Z"/><path fill="#E9391D" d="M827.193 448.869C836.159 448.778 854.073 445.58 854.263 459.903C854.523 478.607 855.005 498.935 853.974 517.404C853.13 532.511 806.815 524.567 796.488 526.505C788.678 527.971 777.224 524.61 776.923 514.648C776.566 502.852 776.604 488.991 776.5 476.991C775.942 449.982 777.105 447.512 803.136 448.85C808.588 448.87 822.341 448.443 827.193 448.869Z"/><path fill="#E9391D" d="M763.467 159.501C763.335 152.5 761.239 134.211 771.828 133.219C789.305 131.583 807.582 132.914 825.186 132.582C829.364 132.516 833.572 133.123 836.552 136.532C841.691 144.353 839.103 156.805 839.479 166.092C839.886 176.11 839.473 186.089 839.446 196.211C839.401 212.962 812.835 207.705 801.722 208.249C794.56 208.6 780.839 208.847 774.039 208.007C770.582 207.59 767.453 205.756 765.399 202.944C762.312 198.648 763.316 188.439 763.43 183.126C763.73 175.896 763.471 166.87 763.467 159.501Z"/><path fill="#E9391D" d="M260.448 183.22C260.612 191.831 262.625 206.789 250.852 207.616C233.678 208.821 215.006 208.435 197.737 208C188.929 207.778 185.234 202.987 184.802 194.717C184.356 186.168 184.63 177.203 184.626 168.596C184.913 160.008 182.555 143.815 187.707 136.306C189.571 133.59 194.222 132.581 197.389 132.602C214.474 132.717 231.713 132.2 248.783 132.781C263.446 133.24 260.682 149.011 260.424 159.397C260.123 167.335 260.131 175.282 260.448 183.22Z"/></svg>