<svg xmlns="http://www.w3.org/2000/svg" xmlns:xlink="http://www.w3.org/1999/xlink" viewBox="102.73 441.84 820.02 117.6"><path fill="#B50E08" transform="scale(0.5 0.5)" d="M534.69 1088C571.199 1089.01 611.436 1088.13 648.218 1088.12L860.369 1088.16L1541.37 1088.39L1777.55 1088.31C1796.08 1088.36 1814.67 1088.58 1833.17 1087.95C1843.19 1087.61 1846.25 1093.24 1845.35 1102.33C1844.89 1107.03 1844.95 1112.92 1844.81 1117.71C1826.95 1118.87 1803.37 1118.29 1784.94 1118.3L1676.09 1118.29L1308.25 1118.55L699.5 1118.47L404.022 1118.34C337.91 1119 271.793 1119.06 205.679 1118.53C205.396 1108.14 205.305 1100.33 205.891 1089.85C221.112 1087.82 236.909 1089.15 252.284 1088.17C309.712 1089.02 368.601 1088.12 426.227 1088.17C458.696 1088.2 502.917 1089.55 534.69 1088Z"/><path fill="#FDFDFC" transform="scale(0.5 0.5)" d="M210.537 885.98C246.163 885.818 294.605 879.454 321.247 907.339C348.632 936.001 347.815 981.693 319.797 1009.88C291.477 1035.24 246.364 1031.03 210.43 1030.92C211.419 983.687 210.582 933.441 210.537 885.98ZM235.117 1009.21C257.558 1009.56 283.423 1012.12 300.819 994.893C319.539 975.105 320.409 940.799 300.789 921.167C284.623 904.992 256.545 907.696 235.334 908.013C235.103 941.453 234.82 975.775 235.117 1009.21Z"/><path fill="#FDFDFC" transform="scale(0.5 0.5)" d="M1802.16 886.005C1812.36 885.906 1822.84 886.045 1833.06 886.071C1832.76 933.553 1833.67 983.652 1832.46 1030.83L1808.43 1030.85C1806.99 1014.13 1807.78 980.718 1807.76 962.75C1807.89 950.478 1808.14 938.726 1807.43 926.457C1790.94 955.098 1776.76 989.079 1760.65 1016.06C1754.99 1016.7 1741.78 1018.6 1738.63 1013.01C1723.11 985.405 1710.06 955.899 1693.98 928.594C1693.52 961.992 1693.9 997.267 1694.08 1030.72C1685.91 1031.09 1676.1 1030.85 1667.81 1030.87L1667.56 939.716C1667.48 930.747 1665.84 892.513 1669.04 886.232C1679.65 885.943 1689.96 885.683 1700.56 886.404C1716.86 917.596 1732.46 953.489 1750.63 983.679C1767.98 952.227 1783.89 916.393 1802.16 886.005Z"/><path fill="#FDFDFC" transform="scale(0.5 0.5)" d="M951.933 885.887L976.177 886.001L976.041 1031.15C967.562 1031.69 962.347 1031.74 953.99 1030.96C944.522 1022.92 933.475 1006.45 925.473 996.333C908.034 974.292 890.527 948.52 872.224 927.482C871.556 960.894 872.256 997.638 872.225 1031.26C863.957 1031.41 855.274 1031.26 846.967 1031.26L846.647 937.878C846.604 923.732 845.88 899.647 847.219 886.279C855.955 886.211 864.691 886.303 873.423 886.552C879.31 892.514 888.465 905.289 893.743 912.312C904.649 926.761 915.461 941.28 926.18 955.868C933.405 965.697 943.852 980.452 951.912 989.372C952.121 954.84 950.813 920.541 951.933 885.887Z"/><path fill="#FDFDFC" transform="scale(0.5 0.5)" d="M746.947 884.373C768.882 884.104 790.442 889.428 805.624 906.416C814.456 916.299 798.432 923.855 791.279 928.798C785.009 919.42 779.069 912.962 768.009 909.19C718.856 892.431 686.796 943.805 707.017 984.735C712.561 996.17 722.527 1004.85 734.615 1008.77C764.229 1018.41 787.095 1003.82 795.161 974.9C784.968 974.336 767.889 975.869 757.897 973.076C755.652 972.448 755.377 970.16 754.859 968.249C754.66 963.424 754.854 958.901 754.998 954.085C774.135 953.278 800.017 954.023 819.643 954.074C820.821 971.846 818.516 991.36 807.585 1005.86C782.305 1038.47 735.399 1042.01 703.077 1017.41C670.535 993.523 666.967 942.091 691.434 911.328C706.252 892.696 724.106 886.758 746.947 884.373Z"/><path fill="#FDFDFC" transform="scale(0.5 0.5)" d="M1541 886.06C1572.71 885.403 1606.21 885.872 1638.07 885.859C1638.22 892.993 1638.04 900.645 1637.99 907.824C1620.79 909.195 1584.99 908.106 1566.46 908.074C1566.04 918.375 1565.66 935.398 1566.59 945.582L1632.7 945.552C1632.99 952.186 1633.97 960.206 1631.7 966.225C1626.72 969.224 1576.2 967.781 1566.33 967.772C1565.84 980.968 1566.16 995.896 1566.18 1009.22C1590 1009.8 1615.78 1008.67 1639.02 1009.89C1639.27 1016.7 1639.15 1024.34 1639.19 1031.22L1540.55 1031.25L1540.07 932.539C1540.04 923.48 1539.25 892.934 1541 886.06Z"/><path fill="#FDFDFC" transform="scale(0.5 0.5)" d="M367.006 885.966L463.486 886.134C463.513 891.172 464.15 901.895 461.661 905.896C453.539 908.704 404.67 907.772 393.181 907.787L393.138 945.75C414.461 946.146 436.389 944.952 457.735 945.67C457.979 951.779 458.606 958.886 457.388 964.78C452.922 968.956 404.917 966.725 393.901 967.536L392.847 967.622L392.978 1009.44C416.943 1009.21 440.91 1009.32 464.871 1009.76C464.951 1016.62 464.832 1023.48 464.515 1030.34C456.298 1031.34 438.595 1030.94 429.828 1030.93L367.214 1030.86L367.006 885.966Z"/><path fill="#FDFDFC" transform="scale(0.5 0.5)" d="M1050.5 884.391C1077.77 883.134 1101.02 887.942 1112.44 916.197C1103.02 920.768 1099.07 922.073 1088.74 923.306C1086.03 920.447 1083.31 917.083 1080.49 914.41C1071.38 904.252 1046.35 900.98 1037.86 913.146C1022.99 934.45 1054.81 943.919 1069.19 947.061C1080.25 949.479 1090.82 954.18 1099.07 959.704C1115.87 970.958 1119.25 998.686 1106.98 1014.19C1096.66 1027.52 1082.04 1031.09 1066.25 1033.06C1044.11 1033.44 1025.74 1029.31 1010.58 1012.1C997.977 997.786 1006.03 993.295 1021.42 991.604C1030.14 990.685 1032.87 1000.51 1038.45 1004.8C1049.99 1013.66 1076.36 1013.72 1085.52 1001.28C1099.76 981.962 1066.87 971.529 1053.56 967.492C1032.03 960.962 1004.23 949.097 1008.07 921.602C1011.64 896.289 1027.87 888.428 1050.5 884.391Z"/><path fill="#FDFDFC" transform="scale(0.5 0.5)" d="M1320.49 884.264C1338.86 883.313 1370.57 888.888 1378.91 912.324C1382.31 921.884 1361.94 921.943 1355.64 921.983C1332.31 888.326 1296.76 914.541 1300.14 925.338C1307.86 950.066 1380 943.632 1382.03 985.342C1383.68 1019.27 1357.62 1031.69 1330.11 1033.5C1311.24 1033.67 1281.41 1024.51 1272.44 1003.74C1269.04 995.867 1286.53 992.038 1292.4 990.964C1306.01 1006.93 1312.04 1012.62 1334.6 1010.58C1354.04 1008.83 1369.27 989.928 1346.9 977.713C1324.09 964.927 1282.88 965.665 1277.17 932.643C1271.89 902.148 1295.07 888.411 1320.49 884.264Z"/><path fill="#FDFDFC" transform="scale(0.5 0.5)" d="M531.79 884.273C549.425 882.643 559.598 883.991 574.877 893.127C594.802 905.039 600.393 925.431 572.395 922.193C568.585 921.752 553.495 900.631 540.202 904.602C534.856 905.28 522.551 908.841 519.32 913.641C501.665 939.866 548.703 946.658 560.782 950.474C591.893 960.304 607.146 988.336 586.713 1015.88C578.084 1027.51 558.792 1031.68 545.248 1032.8C527.667 1033.43 496.073 1024.91 486.639 1005.2C482.336 996.21 498.837 992.498 505.64 990.848C520.026 1007.6 529.577 1014.59 553.617 1010.01C563.196 1008.18 573.731 998.772 570.557 988.244C566.56 977.938 549.486 971.068 538.99 968.977C506.766 962.557 476.346 941.01 495.664 904.637C501.85 892.989 518.671 887.043 531.79 884.273Z"/><path fill="#FDFDFC" transform="scale(0.5 0.5)" d="M1128.8 886.27C1137.62 886.132 1146.82 886.278 1155.68 886.288C1163.51 896.357 1186.73 938.009 1192.97 949.781C1196.32 943.703 1226.26 889.515 1230.63 888.357C1258.81 880.876 1260.54 888.278 1244.01 912.001C1241.26 915.957 1230.6 933.798 1227 939.702C1208 969.569 1204.68 968.111 1206.84 1007.95C1207.16 1013.85 1207.45 1023.25 1205.81 1029.02C1201.63 1032.43 1188.05 1031.27 1181.85 1031.19C1180.36 1015.5 1180.95 989.014 1180.88 972.416C1173.66 961.164 1129.61 894.581 1128.8 886.27Z"/><path fill="#FDFDFC" transform="scale(0.5 0.5)" d="M1396.21 886L1517.3 885.844C1517.81 892.425 1519.14 900.534 1516.61 906.416C1511.08 909.078 1478.48 908.181 1470.09 908.165L1470.07 986.007C1469.7 1000.74 1470.11 1016.93 1470.21 1031.77C1460.7 1031.46 1453 1031.45 1443.49 1031.8C1445.11 993.767 1443.96 946.504 1443.83 907.929C1432.99 907.603 1407.35 908.96 1398.04 906.906C1394.86 903.029 1396.06 891.451 1396.21 886Z"/><path fill="#FDFDFC" transform="scale(0.5 0.5)" d="M622.476 886.23L648.476 885.987L648.131 1031.23L622.895 1031.15C622.749 984.277 623.972 932.637 622.476 886.23Z"/><path fill="#646363" fill-opacity="0.011764706" transform="scale(0.5 0.5)" d="M252.284 1088.17C254.473 1086.2 255.69 1085.15 258.764 1085.03C271.583 1084.51 284.827 1084.6 297.639 1084.59L365.318 1084.58L453.174 1084.56C465.598 1084.56 526.022 1084.27 534.69 1088C502.917 1089.55 458.696 1088.2 426.227 1088.17C368.601 1088.12 309.712 1089.02 252.284 1088.17Z"/></svg>