<?xml version="1.0" encoding="utf-8" ?><svg xmlns="http://www.w3.org/2000/svg" xmlns:xlink="http://www.w3.org/1999/xlink" width="512" height="512" viewBox="50 50 412 412"><path fill="#B42419" d="M104.036 83.7888L282.061 83.7819C292.888 83.781 306.999 81.6281 315.311 89.727C322.158 96.3981 320.888 105.235 320.886 114.031L320.879 234.749L429.661 234.732C447.255 234.724 461.894 238.112 462.038 258.971L462.046 391.453C462.063 419.696 458.114 426.992 428.862 426.996L407.755 426.985L309.387 426.997C285.306 427.011 279.183 421.248 279.232 396.882L279.251 298.261L72.9459 298.28C60.8671 298.285 49.4005 294.73 49.5537 279.642L49.6245 119.234C49.6206 89.1907 50.4667 83.8031 82.2554 83.7765L104.036 83.7888ZM66.5579 90.7447C53.9739 94.3643 56.3045 105.674 56.342 116.127C65.2605 116.31 74.7324 116.128 83.7077 116.127L303.625 116.127L314.049 116.127C314.299 105.248 315.553 90.8507 300.566 90.7562L75.1301 90.7229C72.8017 90.7167 68.8052 90.5896 66.5579 90.7447ZM367.557 294.048C370.128 293.327 368.19 289.832 373.102 289.028L373.302 288.664C372.755 288.538 372.602 288.387 372.174 288.028C368.43 287.792 364.367 287.738 360.608 288.028L367.557 294.048ZM300.731 234.749L314.049 234.749L314.049 122.962L84.4823 122.959C75.5926 122.959 65.09 122.685 56.342 122.962L56.3448 260.183C56.3458 264.965 56.5532 271.046 56.342 275.687C61.6297 271.184 68.8097 263.443 74.0731 258.293L119.915 212.669C122.985 209.592 142.68 189.034 145.156 188.428C149.546 191.011 158.614 201.162 162.848 205.441L184.052 226.628C187.6 230.233 196.362 238.312 198.655 241.749C207.61 229.951 225.241 214.071 236.076 203.416C254.824 184.932 249.153 182.748 266.094 200.089L288.593 222.785C292.364 226.556 296.839 231.385 300.731 234.749Z"/><path fill="#F2BDB9" d="M285.993 407.711C285.851 396.361 285.988 384.68 285.989 373.309L286.001 259.581C286.065 240.927 300.076 241.732 314.249 241.741L440.258 241.749C460.439 244.893 455.275 268.467 455.276 284.415L455.269 404.729C455.153 423.956 429.065 420.325 416.248 420.327L302.052 420.28C293.636 420.203 288.269 416.136 285.993 407.711ZM367.557 294.048C370.128 293.327 368.19 289.832 373.102 289.028L373.302 288.664C372.755 288.538 372.602 288.387 372.174 288.028C368.43 287.792 364.367 287.738 360.608 288.028L367.557 294.048Z"/><path fill="#DC725E" d="M440.258 241.749C460.439 244.893 455.275 268.467 455.276 284.415L455.269 404.729C455.153 423.956 429.065 420.325 416.248 420.327L302.052 420.28C293.636 420.203 288.269 416.136 285.993 407.711C296.457 407.551 307.32 407.71 317.825 407.71L381.327 407.708C393.082 407.709 404.918 407.803 416.664 407.668C441.398 407.159 440.313 392.928 440.265 373.061L440.25 273.776C440.252 263.739 440.59 251.604 440.258 241.749Z"/><path fill="#B42419" d="M362.637 281.241C392.429 280.328 416.392 301.641 414.646 332.376C413.231 357.289 389.89 379.535 364.522 376.866C353.3 378.079 339.926 370.472 332.435 362.562C309.55 338.398 319.434 293.642 358.641 295.744C350.536 287.315 341.499 283.602 362.637 281.241ZM367.557 294.048C370.128 293.327 368.19 289.832 373.102 289.028L373.302 288.664C372.755 288.538 372.602 288.387 372.174 288.028C368.43 287.792 364.367 287.738 360.608 288.028L367.557 294.048Z"/><path fill="#FAE4E2" d="M372.174 288.028C405.172 291.149 421.914 337.239 392.424 361.23C373.265 376.817 343.765 372.238 332.029 350.212C320.523 328.618 330.608 301.093 357.769 302.243C355.276 304.358 343.409 317.708 346.817 320.89C352.39 326.093 355.919 312.296 362.699 307.099C369.653 301.363 379.224 303.146 367.557 294.048C370.128 293.327 368.19 289.832 373.102 289.028L373.302 288.664C372.755 288.538 372.602 288.387 372.174 288.028Z"/><path fill="#B42419" d="M198.381 142.454C210.872 140.292 222.746 148.677 224.888 161.171C227.03 173.666 218.626 185.527 206.129 187.649C193.659 189.766 181.831 181.385 179.694 168.919C177.557 156.453 185.918 144.611 198.381 142.454Z"/><path fill="#F2BDB9" d="M201.594 148.867C210.536 148.496 218.082 155.453 218.436 164.396C218.79 173.339 211.819 180.871 202.875 181.209C193.956 181.545 186.448 174.596 186.095 165.678C185.741 156.759 192.676 149.238 201.594 148.867Z"/><path fill="#DC725E" d="M145.16 197.261L238.735 291.385C229.297 291.175 218.947 291.379 209.437 291.38L151.125 291.385L75.1023 291.416C70.8792 291.436 63.7379 292.285 60.5931 289.133C53.495 282.02 60.7887 281.158 68.154 273.753L123.982 218.061C129.863 212.228 139.113 202.465 145.16 197.261Z"/><path fill="#DC725E" d="M252.8 196.385C253.772 196.735 289.221 232.97 292.712 236.659C277.319 244.576 279.237 255.913 279.251 270.556L279.251 291.385C269.293 291.172 258.612 291.377 248.603 291.385L246.191 288.977C242.584 285.183 238.614 281.524 234.901 277.814L216.349 258.998C212.465 255.088 206.689 249.694 203.387 245.539C219.056 230.798 238.345 212.452 252.8 196.385Z"/><path fill="#B42419" d="M212.964 309.712C218.712 309.959 215.321 320.701 214.755 324.988L212.166 344.946L245.672 344.937C249.193 344.933 264.659 344.37 266.374 345.961C266.973 347.626 267.033 373.846 266.339 375.784C263.996 378.065 219.72 376.751 212.964 376.866C213.396 381.134 217.057 406.358 215.794 408.815C213.258 413.747 206.695 407.322 203.962 405.574C198.491 401.727 192.144 397.753 186.486 394.096L158.373 376.009C154.295 373.404 138.461 363.949 136.32 360.866C135.99 357.146 155.861 346.234 159.484 343.925L191.072 323.746C197.774 319.515 206.046 313.041 212.964 309.712Z"/><path fill="#F2BDB9" d="M207.769 320.946L207.986 321.036C208.405 322.352 205.896 339.904 205.459 342.611C203.793 352.938 205.316 351.647 215.208 351.804C218.197 351.852 221.994 351.805 225.267 351.803L260.013 351.792L260.013 370.055L209.228 370.013C200.493 369.269 210.089 393.463 208.469 400.008L207.769 399.599C201.865 396.314 194.59 391.169 188.775 387.375L161.973 370.167C157.226 367.092 151.584 363.146 146.728 360.52C166.684 346.78 187.564 334.336 207.769 320.946Z"/></svg>