<?xml version="1.0" encoding="utf-8" ?><svg xmlns="http://www.w3.org/2000/svg" xmlns:xlink="http://www.w3.org/1999/xlink" width="579" height="579" viewBox="50 140 410 230"><path fill="#B42419" transform="matrix(1.13086 0 0 1.13086 -0.000488281 0)" d="M70.6835 148.748C73.9579 148.408 80.1065 148.757 83.7864 148.753L440.787 148.716C456.379 148.748 458.267 162.2 458.263 173.809L458.265 331.241C458.281 343.367 458.632 359.891 442.562 362.242L82.3482 362.251C78.4591 362.261 73.6301 362.564 69.9095 362.21C53.9577 360.693 53.9298 345.12 53.9292 333.457L53.9225 175.335C53.917 162.752 54.7831 149.946 70.6835 148.748ZM394.814 235.675C398.482 234.793 403.436 231.079 403.419 227.248C403.319 205.206 407.293 200.712 383.495 200.707L119.15 200.711C106.97 202.882 109.672 214.142 109.68 224.122C108.945 240.066 127.751 235.676 139.615 235.676L382.528 235.688C386.071 235.693 391.386 235.874 394.814 235.675Z"/><path fill="#F9926F" transform="matrix(1.13086 0 0 1.13086 -0.000488281 0)" d="M72.1326 155.71L429.804 155.703C448.568 155.673 451.242 154.871 451.244 174.925L451.264 333.813C451.321 343.178 451.873 354.189 439.72 355.245C437.266 355.745 426.603 355.247 423.452 355.241L95.4723 355.246C87.5927 355.247 79.6414 355.312 71.7671 355.232C63.5069 355.148 61.0583 347.583 60.9984 340.501L60.9371 184.698C60.9369 173.299 56.7043 155.802 72.1326 155.71ZM394.814 235.675C398.482 234.793 403.436 231.079 403.419 227.248C403.319 205.206 407.293 200.712 383.495 200.707L119.15 200.711C106.97 202.882 109.672 214.142 109.68 224.122C108.945 240.066 127.751 235.676 139.615 235.676L382.528 235.688C386.071 235.693 391.386 235.874 394.814 235.675Z"/><path fill="#DA4236" transform="matrix(1.13086 0 0 1.13086 -0.000488281 0)" d="M83.15 161.964L416.736 161.949C436.905 161.932 444.655 163.281 444.751 185.966L444.739 311.343C444.75 326.339 449.145 347.917 428.333 349.402C426.926 349.501 425.185 349.42 423.74 349.421L100.919 349.408C86.029 349.405 67.9756 349.845 67.9192 329.851L67.905 192.447C67.9067 179.61 64.665 161.972 83.15 161.964ZM394.814 235.675C398.482 234.793 403.436 231.079 403.419 227.248C403.319 205.206 407.293 200.712 383.495 200.707L119.15 200.711C106.97 202.882 109.672 214.142 109.68 224.122C108.945 240.066 127.751 235.676 139.615 235.676L382.528 235.688C386.071 235.693 391.386 235.874 394.814 235.675Z"/><path fill="#FAE4E2" transform="matrix(1.13086 0 0 1.13086 -0.000488281 0)" d="M73.2537 330.135L73.2493 193.554C73.2489 186.935 70.6808 167.817 80.4022 167.498C90.5271 167.164 100.75 167.304 110.88 167.308L416.897 167.319C420.948 167.306 425.615 166.94 429.516 167.313C441.752 170.256 439.739 181.47 439.733 191.296L439.729 315.369C439.74 326.098 442.664 344.326 427.135 344.19L100.736 344.207C89.4782 344.205 74.1547 346.256 73.2537 330.135ZM394.814 235.675C398.482 234.793 403.436 231.079 403.419 227.248C403.319 205.206 407.293 200.712 383.495 200.707L119.15 200.711C106.97 202.882 109.672 214.142 109.68 224.122C108.945 240.066 127.751 235.676 139.615 235.676L382.528 235.688C386.071 235.693 391.386 235.874 394.814 235.675Z"/><path fill="#F2BDB9" transform="matrix(1.13086 0 0 1.13086 -0.000488281 0)" d="M429.516 167.313C441.752 170.256 439.739 181.47 439.733 191.296L439.729 315.369C439.74 326.098 442.664 344.326 427.135 344.19L100.736 344.207C89.4782 344.205 74.1547 346.256 73.2537 330.135C87.7902 337.087 90.0642 333.983 106.415 334.055L383.904 334.064C397.979 334.155 409.295 336.88 420.335 325.895C430.492 315.79 429.532 305.708 429.522 292.598L429.516 167.313Z"/><path fill="#DA4236" transform="matrix(1.13086 0 0 1.13086 -0.000488281 0)" d="M118.427 195.883C120.002 195.71 125.783 195.858 127.608 195.861L376.863 195.882C394.28 195.878 409.726 192.447 408.791 216.719C408.327 228.758 410.275 235.62 396.282 240.711L127.356 240.722C119.183 240.721 104.272 240.857 104.782 228.097C105.286 215.463 100.457 197.835 118.427 195.883ZM394.814 235.675C398.482 234.793 403.436 231.079 403.419 227.248C403.319 205.206 407.293 200.712 383.495 200.707L119.15 200.711C106.97 202.882 109.672 214.142 109.68 224.122C108.945 240.066 127.751 235.676 139.615 235.676L382.528 235.688C386.071 235.693 391.386 235.874 394.814 235.675Z"/><path fill="#DA4236" transform="matrix(1.13086 0 0 1.13086 -0.000488281 0)" d="M118.427 271.735C119.252 271.576 123.391 271.678 124.435 271.686L376.309 271.737C386.282 271.734 400.847 268.827 406.687 278.368C409.937 283.678 408.545 290.129 408.771 296.069C408.215 305.412 408.566 313.079 396.282 315.785C390.681 315.989 383.708 315.789 377.998 315.788L128.92 315.789C106.764 315.82 105.008 314.955 104.672 292.782C104.506 281.847 104.857 272.263 118.427 271.735Z"/><path fill="white" transform="matrix(1.13086 0 0 1.13086 -0.000488281 0)" d="M116.588 276.731C123.958 276.549 132.136 276.728 139.561 276.73L374.352 276.727C382.792 276.727 405.976 273.127 403.991 287.578C402.694 297.021 407.355 305.605 396.282 310.845C393.565 311.038 388.732 310.862 385.817 310.859L120.088 310.808C107.379 310.767 109.907 300.709 109.75 291.762C109.63 284.891 108.87 279.642 116.588 276.731Z"/></svg>