<?xml version="1.0" encoding="utf-8" ?><svg xmlns="http://www.w3.org/2000/svg" xmlns:xlink="http://www.w3.org/1999/xlink" width="512" height="512" viewBox="65 85 380 340"><path fill="#B42419" d="M240.104 153.497C245.007 153.45 269.769 152.954 272.432 154.071C274.721 155.031 279.553 168.895 280.57 171.351L329.84 289.923C335.059 302.275 340.169 315.016 345.669 327.192C351.347 327.156 361.051 325.918 365.264 330.021C368.902 333.564 368.612 345.049 365.953 349.158C363.13 353.517 357.464 352.779 352.906 352.778L301.316 352.818C290.631 352.966 290.201 333.738 295.695 329.129C299.472 325.96 305.363 326.912 309.961 327.192C306.67 317.581 301.486 306.244 297.297 296.974L271.375 296.974C252.622 296.973 233.373 297.205 214.667 296.974C210.32 306.771 205.779 317.037 202.348 327.192C216.609 326.076 220.11 328.476 219.994 342.904C219.908 353.497 210.565 352.789 202.98 352.782L164.827 352.785C151.187 352.814 143.059 355.127 144.338 336.477C145.134 324.871 157.644 326.469 166.773 327.168L167.057 327.192C170.963 316.447 175.952 305.187 180.388 294.641L221.343 196.086C223.958 189.669 236.46 155.952 240.104 153.497ZM227.491 265.212L257.125 265.212C266.052 265.214 275.301 265.348 284.199 265.212C283.206 261.506 281.381 257.569 279.867 254.001L273.381 238.733C271.613 234.553 257.643 199.469 255.317 197.623C253.073 204.752 250.044 210.281 247.217 217.085C240.936 232.2 232.734 249.992 227.491 265.212Z"/><path fill="#F4A38D" d="M243.47 160.218C251.605 160.425 260.664 160.22 268.875 160.218C270.51 165.068 273.275 171.422 275.224 176.252L326.047 298.546C329.785 307.656 334.918 318.118 338.111 327.192L317.156 327.192C315.99 323.202 303.4 292.574 301.387 290.871C300.101 289.783 272.554 290.358 268.875 290.362L233.989 290.354C229.838 290.354 213.74 289.987 210.612 291.043C208.553 293.21 196.968 322.391 195.022 327.192C188.497 326.98 180.962 327.18 174.353 327.192C176.75 319.578 182.541 306.747 185.811 298.924L233.17 184.959C236.488 177.089 239.847 167.728 243.47 160.218ZM227.491 265.212L257.125 265.212C266.052 265.214 275.301 265.348 284.199 265.212C283.206 261.506 281.381 257.569 279.867 254.001L273.381 238.733C271.613 234.553 257.643 199.469 255.317 197.623C253.073 204.752 250.044 210.281 247.217 217.085C240.936 232.2 232.734 249.992 227.491 265.212Z"/><path fill="#B42419" d="M254.418 185.266C257.378 185.089 258.295 185.413 259.472 188.229L282.441 242.998C285.986 251.33 290.131 259.978 292.731 268.616C294.034 272.945 280.032 271.715 277.957 271.713L257.125 271.69L234.259 271.7C225.372 271.699 215.687 274.706 220.403 263.907C224.529 254.46 228.562 244.966 232.509 235.453L246.257 202.234C247.931 198.22 251.1 187.674 254.418 185.266ZM227.491 265.212L257.125 265.212C266.052 265.214 275.301 265.348 284.199 265.212C283.206 261.506 281.381 257.569 279.867 254.001L273.381 238.733C271.613 234.553 257.643 199.469 255.317 197.623C253.073 204.752 250.044 210.281 247.217 217.085C240.936 232.2 232.734 249.992 227.491 265.212Z"/><path fill="#F6775B" d="M174.353 333.498C180.149 333.498 209.065 332.878 212.171 334.024C213.751 335.809 213.888 344.221 212.307 345.802C209.957 346.84 192.763 346.513 189.375 346.506C183.714 346.511 154.917 347.131 151.917 345.923C150.195 343.976 150.05 335.564 151.651 334.215C153.202 332.908 171.074 333.488 174.353 333.498Z"/><path fill="#F6775B" d="M300.513 333.498L336.709 333.494C340.613 333.495 355.741 333.032 360.163 334.137C361.291 334.418 362.029 343.966 359.186 346.506C357.656 346.73 354.716 346.546 353.068 346.536L315.812 346.51C310.744 346.509 305.4 346.743 300.408 346.078C298.384 345.808 298.389 334.628 300.513 333.498Z"/><path fill="#B42419" d="M356.784 118.367C357.332 111.039 354.797 93.0614 359.188 88.2482C362.674 84.4257 367.461 85.2229 372.136 85.2319L434.256 85.2536C447.757 85.314 444.702 96.7275 444.966 106.146C445.109 111.265 445.006 116.486 445.004 121.611C444.869 129.194 425.242 139.25 419.095 144.853L418.747 145.174L418.766 206.127C418.78 213.247 419.953 221.036 410.262 222.067C400.341 223.123 385.759 224.824 384.533 212.062L384.533 144.194C375.745 138.502 367.531 131.562 359.186 125.251L153.967 125.251C145.539 132.18 135.826 137.845 127.783 145.174C127.517 149.663 127.769 157.343 127.771 162.047L127.786 196.655C127.803 213.504 132.181 222.926 112.604 222.489C97.4634 222.151 94.0895 224.23 94.0815 205.89L94.088 145.174C88.3751 141.395 69.5919 128.946 68.1398 124.027C67.0878 120.463 67.1027 96.8338 67.6322 92.4503C68.1044 88.5408 71.1922 86.226 74.8564 85.2595C75.4185 85.2278 75.1905 85.2325 75.723 85.2323L138.124 85.2503C154.841 85.2548 154.519 89.0995 154.515 103.48L154.497 118.367L333.945 118.368C341.463 118.369 349.301 118.513 356.784 118.367ZM395.98 147.212C394.473 147.188 392.98 147.142 391.474 147.212C391.763 162.271 391.461 178.374 391.461 193.508L391.464 205.575C391.468 210 389.987 215.489 395.98 215.643C395.483 194.31 394.97 168.603 395.98 147.212ZM363.666 119.731C370.544 125.587 382.507 135.167 390.368 139.985C391.583 139.815 393.947 139.949 395.258 139.985C389.874 134.832 375.429 124.29 368.754 119.731C368.511 110.974 368.748 101.078 368.754 92.2334C366.904 92.2098 365.721 91.9269 364.34 93.0718C363.398 94.731 363.436 116.597 363.666 119.731ZM103.304 140.446C101.835 136.934 81.343 125.062 79.4097 120.26C79.0666 119.408 79.2174 112.523 79.2189 110.973L79.2427 92.2334L74.2569 92.2334C74.2825 102.115 74.0811 112.349 74.2569 122.182C82.1657 127.434 90.8709 135.935 98.9606 140.212L99.3953 140.446C100.679 140.474 102.029 140.538 103.304 140.446ZM100.599 147.212C100.495 153.456 100.058 213.655 100.968 215.422C102.164 215.83 103.232 215.685 104.51 215.643L104.51 147.212C103.196 147.193 101.913 147.162 100.599 147.212Z"/><path fill="#F6775B" d="M79.2427 92.2334C81.5985 91.9819 88.2979 92.2115 90.9529 92.2225L136.925 92.2182C140.115 92.2062 144.665 91.879 147.617 92.2334L147.635 111.312C147.644 114.351 147.787 118.751 147.617 121.695C139.68 126.761 130.01 134.513 122.734 140.446L103.304 140.446C101.835 136.934 81.343 125.062 79.4097 120.26C79.0666 119.408 79.2174 112.523 79.2189 110.973L79.2427 92.2334Z"/><path fill="#F6775B" d="M368.754 92.2334L430.188 92.2072C432.45 92.1962 436.152 92.0623 438.263 92.2334C438.601 101.402 438.647 112.699 438.263 121.695C434.52 125.766 414.25 140.061 411.075 139.965C407.382 140.024 393.549 140.599 390.368 139.985C391.583 139.815 393.947 139.949 395.258 139.985C389.874 134.832 375.429 124.29 368.754 119.731C368.511 110.974 368.748 101.078 368.754 92.2334Z"/><path fill="#F6775B" d="M104.51 147.212L120.948 147.212L120.948 215.643C115.49 215.744 109.974 215.635 104.51 215.643L104.51 147.212Z"/><path fill="#F6775B" d="M395.98 147.212C401.065 146.955 406.758 147.25 411.939 147.212L411.939 215.643C409.018 215.643 397.874 215.217 395.98 215.643C395.483 194.31 394.97 168.603 395.98 147.212Z"/><path fill="#B42419" d="M100.599 289.693C105.281 289.042 111.915 290.141 116.847 289.495C128.079 288.023 127.847 296.698 127.812 304.048L127.783 367.916C131.545 370.4 154.372 385.611 154.581 389.852C154.93 396.952 154.106 404.237 154.581 411.381C156.179 426.522 149.152 425.528 137.664 425.493L120.948 425.475L91.0344 425.496C83.5159 425.5 67.3558 428.135 67.4098 416.985C67.4448 409.521 64.8883 388.111 71.422 384.064C77.173 380.502 88.3255 370.272 94.088 367.916C93.8567 365.013 94.0783 360.409 94.0808 357.306L94.0832 310.321C94.0824 303.356 91.8472 291.918 100.599 289.693ZM102.21 365.32C103.342 365.281 104.665 365.318 105.814 365.32C104.104 359.406 104.498 341.878 104.502 334.627L104.485 307.522C104.495 303.81 104.909 299.38 104.51 295.861C102.687 295.835 102.434 295.856 100.599 296.273L100.594 343.638C100.594 347.305 99.0383 365.277 102.21 365.32ZM80.42 418.962L80.42 391.384C86.7502 383.588 96.3913 379.03 103.304 371.899C102.118 371.943 100.534 372.068 99.3953 371.899C96.3423 372.968 75.5923 389 74.2569 391.384C74.2263 394.97 74.0071 416.328 74.6195 418.432C75.9354 419.156 78.8508 418.972 80.42 418.962Z"/><path fill="#F6775B" d="M103.304 371.899C109.282 371.637 116.616 371.901 122.734 371.899C129.344 377.029 143.489 386.348 148.468 391.384C148.503 395.293 148.827 415.568 147.951 418.121C145.151 420.087 89.1928 418.475 80.42 418.962L80.42 391.384C86.7502 383.588 96.3913 379.03 103.304 371.899Z"/><path fill="#F6775B" d="M104.51 295.861C107.315 295.854 119.161 295.411 120.935 296.665C121.742 302.384 120.948 310.792 120.948 316.875L120.948 365.32C116.271 365.317 106.428 366.079 102.21 365.32C103.342 365.281 104.665 365.318 105.814 365.32C104.104 359.406 104.498 341.878 104.502 334.627L104.485 307.522C104.495 303.81 104.909 299.38 104.51 295.861Z"/><path fill="#B42419" d="M391.474 289.693C409.561 289.659 418.847 284.496 418.768 304.817L418.747 367.916C425.192 372.489 431.397 377.695 437.71 382.353C444.137 387.095 445.581 388.854 445.119 396.868C444.024 415.861 451.663 425.539 428.431 425.499L411.939 425.475L380.776 425.491C372.657 425.494 357.507 427.968 357.735 415.475C357.877 407.617 357.568 399.59 357.82 391.747C358.122 384.365 378.63 373.183 384.229 366.96L384.533 366.62L384.523 321.858C384.522 311.94 380.858 293.123 391.474 289.693ZM395.98 296.273C394.356 296.325 393.098 296.343 391.474 296.273L391.465 343.489C391.464 350.327 391.113 360.163 391.474 366.62C392.906 366.623 394.569 366.669 395.98 366.62L395.98 296.273ZM368.754 418.962L368.726 402.03C368.715 398.544 367.997 391.869 370.633 389.356C376.799 383.479 383.623 378.436 390.368 373.273C387.355 371.878 367.578 388.533 364.064 391.384C363.646 398.499 363.72 409.215 364.325 416.016C364.566 418.722 366.454 418.922 368.754 418.962Z"/><path fill="#F6775B" d="M390.368 373.273C390.562 373.377 412.952 373.27 415.373 373.273C422.537 379.512 431.418 384.972 438.263 391.384C438.258 399.701 438.246 407.985 438.491 416.293C438.633 421.121 417.605 418.955 413.503 418.954L368.754 418.962L368.726 402.03C368.715 398.544 367.997 391.869 370.633 389.356C376.799 383.479 383.623 378.436 390.368 373.273Z"/><path fill="#F6775B" d="M391.474 296.273C395.615 295.768 407.451 296.04 411.939 296.273C412.149 303.711 411.94 312.205 411.939 319.714L411.939 366.62L395.98 366.62L395.98 296.273C394.356 296.325 393.098 296.343 391.474 296.273Z"/></svg>