<?xml version="1.0" encoding="utf-8" ?><svg xmlns="http://www.w3.org/2000/svg" xmlns:xlink="http://www.w3.org/1999/xlink" width="1024" height="1024" viewBox="0 0 1024 1024"><path fill="#C42B1E" d="M294.922 154.214L543.998 154.141L626.675 154.119C641.447 154.1 656.404 153.98 671.176 154.214C673.668 154.253 675.838 154.408 677.776 156.04C688.178 164.794 698.264 175.755 707.937 185.354L735.712 212.967C739.721 216.983 754.087 230.14 755.124 235.368C755.927 239.418 755.553 250.555 755.54 255.357L755.51 286.58L755.533 399.405L755.395 621.022C755.381 659.015 755.326 697.009 755.394 735.001C755.41 743.852 753.81 748.431 744.378 749.797C715.313 750.358 684.903 749.958 655.709 749.989L481.354 750.016L358.336 749.98C337.688 749.977 317.035 750.115 296.39 749.936C291.464 749.894 285.01 746.24 284.594 740.974C283.702 729.697 284.128 717.873 284.143 706.516L284.21 622.862L284.209 285.088L284.125 207.582C284.089 193.905 283.908 180.216 284.233 166.549C284.391 159.93 288.324 155.285 294.922 154.214ZM307.446 726.89C324.241 725.887 347.848 726.614 365.17 726.639L470.66 726.726L645.397 726.53C674.034 726.493 703.485 726.119 732.044 726.504C732.549 725.781 732.41 726.216 732.249 725.15L732.096 252.007L692.253 251.985C658.86 252.154 659.675 254.42 659.612 220.76L659.565 177.464L307.443 177.53C306.738 224.877 307.416 273.75 307.425 321.218L307.236 536.587L307.29 660.919C307.27 681.331 306.411 707.227 307.446 726.89ZM682.568 228.682C692.918 228.115 707.142 228.301 717.583 228.548C710.593 221.401 703.647 214.211 696.746 206.978C693.645 203.772 685.942 195.862 682.549 193.221C682.552 204.742 682.815 217.236 682.568 228.682Z"/><path fill="#C42B1E" d="M418.34 415.645C427.077 415.171 437.282 415.46 446.271 415.286C446.175 424.338 446.205 433.391 446.361 442.441C439.822 442.314 428.709 440.855 423.065 444.263C416.162 448.432 407.714 495.258 401.459 506.049C398.729 510.759 395.267 514.186 391.044 517.552C394.202 519.78 398.194 523.132 400.153 526.581C407.297 540.032 411.014 557.057 415.357 571.758C421.694 593.204 425.741 590.31 445.846 590.507L445.985 617.412L434.125 617.367C424.39 617.323 415.948 618.15 407.074 613.486C394.191 606.714 391.477 594.319 387.747 581.438L380.248 555.583C374.286 535.466 370.61 532.19 349.71 531.486C349.958 522.407 349.775 513.117 349.693 504.02C362.828 504.178 372.732 503.319 377.554 488.734C383.58 470.414 387.093 450.724 394.023 432.758C397.972 422.522 408.036 417.084 418.34 415.645Z"/><path fill="#C42B1E" d="M592.634 415.45C600.762 415.685 609.744 414.935 617.759 415.405C641.531 416.8 645.071 433.33 650.308 451.975L657.969 479.278C663.86 500.198 667.171 503.947 688.974 504.109C688.973 513.223 688.833 522.778 689.219 531.848C683.109 531.821 675.621 531.55 670.124 534.523C661.655 539.104 659.684 550.706 657.048 559.136C653.705 570.123 650.683 581.246 647.46 592.268C644.17 603.516 639.536 609.218 629.267 614.595C618.95 618.43 604.392 617.266 592.949 617.388C592.908 608.542 593.1 598.999 592.668 590.226C599.256 590.324 609.532 591.222 615.331 588.36C617.405 587.179 619.28 583.994 619.999 581.791C623.507 571.047 626.378 559.739 629.637 548.926C633.888 534.82 635.681 526.906 647.431 517.558C634.698 507.841 634.351 499.681 629.548 484.828C626.057 474.033 622.873 454.294 616.366 445C613.605 441.055 597.929 442.187 592.823 442.369C593.092 434.427 592.905 423.369 592.634 415.45Z"/><path fill="#C42B1E" d="M533.677 411.073C543.064 411.319 553.197 411.224 562.617 411.256C556.787 430.209 500.744 616.723 498.853 618.825C489.222 619 479.49 618.551 469.812 618.828C473.617 605.705 477.892 592.693 481.853 579.608L513.892 474.544C517.972 461.383 521.973 448.198 525.895 434.989C527.701 428.962 531.124 416.535 533.677 411.073Z"/><path fill="#C42B1E" d="M377.281 295.249L591.221 295.215L654.715 295.257C665.014 295.265 679.49 295.684 689.481 295.083C689.576 301.056 689.596 307.031 689.542 313.004L666.25 312.999L350.227 312.996L350.013 295.378L377.281 295.249Z"/><path fill="#C42B1E" d="M349.998 246.499C379.259 247.783 415.091 246.833 444.745 246.803L624.019 246.469L624.108 264.671L350.003 264.9L349.998 246.499Z"/><path fill="#C42B1E" d="M350.101 343.901C355.533 344.22 363.771 343.982 369.464 344.001L410.383 344.024L526.614 343.886C526.623 349.163 526.429 356.448 526.96 361.546L350.201 361.647L350.101 343.901Z"/><path fill="#C42B1E" d="M637.994 637.637C642.186 639.496 649.752 644.346 653.863 646.857C662.161 651.988 670.537 656.991 678.99 661.862C678.965 665.548 678.974 669.234 679.017 672.92C670.02 677.819 661.355 683.146 652.592 688.447C647.549 691.286 642.871 694.211 637.969 697.272L637.988 678.713C644.658 674.949 650.96 671.389 657.432 667.307C650.917 663.433 644.576 659.319 637.86 655.827C638.024 649.898 637.957 643.597 637.994 637.637Z"/><path fill="#C42B1E" d="M582.21 637.819C595.958 645.391 608.96 654.036 622.803 661.563C623.025 664.927 622.934 669.731 622.978 673.209C615.098 678.239 603.533 684.412 595.191 689.212C590.778 691.831 586.38 694.476 581.998 697.147C582.021 691.019 582.01 684.892 581.964 678.764C588.547 675.019 595.073 671.175 601.541 667.233C596.251 663.643 587.942 658.769 582.309 655.882C582.131 649.963 582.214 643.765 582.21 637.819Z"/><path fill="#C42B1E" d="M431.88 637.959C432.398 639.572 432.345 652.688 432.396 655.238C427.986 658.596 417.654 664.166 412.541 666.86C418.437 670.882 426.131 675.442 432.297 679.231L432.27 696.906C427.91 694.464 423.488 691.737 419.185 689.168C413.007 685.484 397.432 675.782 391.519 673.592C391.203 669.275 391.193 665.851 391.229 661.508C404.859 653.797 418.41 645.947 431.88 637.959Z"/><path fill="#C42B1E" d="M460.971 669.726C466.772 670.213 475 670.016 480.927 670.023C492.291 670.046 503.656 670.009 515.02 669.91C514.956 675.235 514.954 680.561 515.014 685.886L460.935 685.795C461.095 680.75 460.969 674.834 460.971 669.726Z"/><path fill="#C42B1E" d="M461.148 645.552C466.606 646.038 474.389 645.786 480.104 645.781C491.676 645.795 503.247 645.713 514.817 645.534C514.802 650.29 514.752 655.046 514.668 659.801L514.749 660.346C514.506 660.544 514.263 660.742 514.019 660.94C502.068 661.025 470.991 660.98 461.212 660.983L461.148 645.552Z"/><path fill="#C42B1E" d="M362.646 676.623C367.252 677.079 373.461 676.87 378.336 677.029C376.029 683.409 374.006 691.167 372.122 697.791L371.692 698.259C368.736 698.671 361.419 698.413 358.126 698.382C360.261 691.149 361.472 684.042 362.646 676.623Z"/><path fill="#C42B1E" d="M361.659 646.12L377.007 646.203C377.022 651.084 377.168 656.649 376.876 661.469L361.797 661.486C361.506 656.968 361.678 650.756 361.659 646.12Z"/><path fill="#C42B1E" d="M271.147 294.316L271.467 294.489C272.099 296.502 271.879 317.867 271.881 321.591L271.895 388.691L271.839 649.667L271.865 720.456C271.843 734.693 271.571 749.748 271.954 763.929L558.114 763.896L652.253 763.912C667.886 763.916 686.219 764.368 701.697 763.821C702.23 763.117 702.624 762.664 703.217 762.008C707.457 761.312 720.768 761.559 725.454 761.558C725.462 767.959 726.907 779.345 722.361 783.603C718.402 787.311 714.018 786.866 709.081 786.861L410.2 786.98L307.33 786.956C291.671 786.943 275.884 787.104 260.224 787.031C254.962 787.007 253.373 785.323 249.971 781.596C248.306 774.28 248.997 751.195 248.984 742.722L248.906 665.527L248.933 420.646L248.919 340.526C248.912 325.648 249.227 309.073 248.672 294.295C256.163 294.431 263.656 294.438 271.147 294.316Z"/><path fill="#C42B1E" d="M230.518 238.403C238.02 237.875 254.754 238.144 262.519 238.416C262.651 251.099 262.938 266.733 262.473 279.268C254.662 278.621 238.869 279.234 230.491 279.362L230.518 238.403Z"/><path fill="#C42B1E" d="M771.519 610.891C779.497 611.129 787.765 611.002 795.77 610.979C796.09 625.657 795.761 641.537 795.682 656.281C789.467 655.81 778.1 656.155 771.496 656.144L771.519 610.891Z"/><path fill="#C42B1E" d="M771.893 676.614C779.48 677.105 788.271 676.932 795.859 676.686C796.134 691.285 795.857 706.743 795.838 721.41L771.901 721.44C771.974 711.877 771.966 702.312 771.878 692.749C771.831 688.413 771.436 680.514 771.893 676.614Z"/><path fill="#C42B1E" d="M267.103 186.761C268.785 186.681 270.306 186.366 271.685 187.181C272.881 192.17 272.001 217.161 272.01 223.549L252.375 223.47C251.253 223.479 250.133 223.412 249.011 223.364C247.789 221.805 248.766 204.583 248.372 200.95C246.771 186.206 256.992 186.827 267.103 186.761Z"/></svg>