<svg xmlns="http://www.w3.org/2000/svg" xmlns:xlink="http://www.w3.org/1999/xlink" viewBox="204.51 882.89 1638.97 236.16"><path fill="#C30505" fill-opacity="0.98431373" d="M205.162 1089.28L1843.48 1089.55L1843.31 1118.62C1831.02 1119.6 1802.91 1118.6 1789.76 1118.52L1689.14 1118.39L1342.66 1118.54L204.95 1118.51C204.809 1111.62 203.911 1095.2 205.162 1089.28ZM223.849 1100.68C224.118 1097.41 224.464 1098.89 222.792 1096.08C218.818 1094.55 214.129 1095.25 209.716 1095.44C210.243 1099.98 209.292 1098.18 212.372 1101.18C217.189 1102.54 218.92 1101.93 223.849 1100.68Z"/><path fill="#D60907" fill-opacity="0.98823529" d="M209.716 1095.44C214.129 1095.25 218.818 1094.55 222.792 1096.08C224.464 1098.89 224.118 1097.41 223.849 1100.68C218.92 1101.93 217.189 1102.54 212.372 1101.18C209.292 1098.18 210.243 1099.98 209.716 1095.44Z"/><path fill="#010201" d="M210.017 886.038C217.568 885.426 225.792 885.891 233.376 885.693C267.319 884.806 298.359 883.708 323.618 910.403C347.772 935.93 346.446 985.065 320.809 1008.74C290.993 1037.62 250.23 1031.42 210.259 1031.3L210.017 886.038ZM234.754 1008.56C252.197 1008.54 278.101 1010.51 292.87 1000.38C307.41 990.544 317.509 973.924 316.404 956.42C313.847 915.875 283.351 906.261 250.627 907.493L235.178 907.633L234.754 1008.56Z"/><path fill="#010201" d="M1802.23 886.026L1833.49 885.917L1833.47 1031.01C1825.37 1031.24 1816.49 1031.08 1808.31 1031.1C1807.43 1011.02 1808.2 984.326 1808.21 963.75L1808.28 925.395C1793.72 948.455 1774.32 990.912 1761.55 1016.18C1754.77 1016.54 1747.01 1016.36 1740.13 1016.36C1725.13 986.273 1709.7 956.393 1693.87 926.731C1692.13 957.561 1693.4 999.958 1693.77 1031.46C1685.03 1031.73 1676.9 1031.62 1668.19 1031.47C1667.66 985.57 1666.72 931.537 1668.13 886.078C1678.78 885.945 1689.87 886.142 1700.55 886.183C1707.95 901.744 1717.09 918.189 1724.82 933.995C1731.61 947.898 1742.25 971.491 1750.42 983.595C1753.46 977.857 1756.55 972.179 1759.74 966.527C1774.52 940.385 1786.59 911.629 1802.23 886.026Z"/><path fill="#010201" d="M951.667 885.896L976.263 885.788L976.145 985.294C976.147 993.132 976.689 1024.46 975.645 1030.82L973.85 1031.65C966.429 1031.71 959.008 1031.6 951.591 1031.35C942.084 1016.17 926.044 997.878 915.192 983.058C900.85 963.47 886.624 944.134 871.081 925.482C873.436 954.115 872.141 1001.53 872.188 1031.6L847.627 1031.7L846.775 886.004L873.809 886.118C900.811 920.922 924.742 955.717 951.744 990.402L951.667 885.896Z"/><path fill="#010201" d="M747.063 883.452C771.825 883.223 798.137 891.897 811.827 913.901C805.483 918.002 798.378 923.38 792.166 927.844C785.809 919.981 779.59 913.617 770.283 909.582C743.799 898.097 714.669 912.805 703.973 937.949C698.584 950.889 698.553 965.44 703.886 978.403C709.618 992.21 720.75 1003.07 734.694 1008.46C764.621 1019.75 787.199 1003.14 796.725 974.988C785.826 974.372 767.314 976.18 756.923 973.493C755.67 973.169 755.868 971.935 755.553 970.25L755.549 953.811L819.492 953.874C819.866 970.441 819.976 985.012 811.286 999.772C788.303 1038.81 733.387 1044.95 699.914 1015.37C685.675 1002.65 677.094 984.769 676.069 965.699C673.39 920.454 701.032 885.911 747.063 883.452Z"/><path fill="#010201" fill-opacity="0.98823529" d="M1541.12 885.327L1638.26 885.543L1638.25 907.537C1615.46 908.398 1589.36 907.949 1566.31 908.045L1566.23 945.272C1588.16 945.079 1610.08 945.137 1632.01 945.444L1632.03 967.087C1612.63 968.213 1586.25 967.578 1566.16 967.643L1566.12 1009.49L1639.03 1009.36L1638.78 1031.25C1606.86 1032.16 1572.75 1031.56 1540.68 1031.52L1540.48 937.048C1540.45 929.695 1539.64 890.328 1541.12 885.327Z"/><path fill="#010201" d="M366.976 885.824C375.157 885.166 389.946 885.579 398.8 885.575L463.367 885.724L463.337 907.479L392.65 907.773L392.615 944.766C413.683 945.147 436.232 944.727 457.412 944.703L457.309 967.256C441.038 967.202 410.92 966.212 393.993 968.221C392.807 968.362 392.869 969.726 392.49 971.25L392.627 1009.37C415.778 1009.12 441.989 1008.85 464.988 1009.66L465.178 1031.36C433.273 1032.03 399.762 1031.51 367.738 1031.49L366.976 885.824Z"/><path fill="#010201" d="M1314.25 884.261C1343.72 880.73 1370.14 887.235 1381.27 917.855C1370.18 920.974 1368.25 921.326 1358.11 926.24C1354.18 918.327 1353.8 917.024 1346.65 911.05C1332.75 899.429 1298.54 902.03 1302.56 926.164C1303.7 936.027 1317.58 941.246 1327.26 943.295C1361.37 950.516 1399.01 973.436 1374.76 1013.21C1367.3 1025.43 1351.19 1031.58 1336.1 1033.58C1310.04 1034.14 1290.41 1030.32 1274.74 1007.1C1272.8 1004.23 1270.3 1001.15 1270.99 997.549C1272.77 995.859 1289.58 990.599 1293 989.4C1307.79 1014.18 1342.41 1023.02 1357.73 994.846C1351.01 965.141 1320.04 971.819 1298.02 959.413C1283.84 951.426 1271.5 934.037 1275.93 917.106C1281.34 896.439 1295.03 889.162 1314.25 884.261Z"/><path fill="#010201" d="M1053.17 883.408C1071.12 883.554 1084.4 884.411 1099.14 897.379C1103.43 901.162 1111.68 909.346 1111.96 915.027C1110.86 916.068 1094.05 923.738 1090.16 925.842C1082.63 911.658 1074.22 903.35 1056.96 904.049C1045.77 904.502 1029.24 915.09 1034.06 928.221C1037.96 938.847 1054.98 943.152 1064.65 946.279C1085.7 952.183 1113.81 961.747 1114.61 988.005C1114.75 992.675 1114.44 998.701 1112.87 1003.11C1109.22 1007.85 1106.49 1015.41 1102.41 1019.48C1091.38 1030.51 1074.65 1033.9 1059.71 1033.99C1031.46 1034.01 1014.66 1021.72 1001.54 997.533C1010.45 995.361 1016.76 992.786 1024.96 988.933C1031.93 999.965 1037.72 1007.18 1051.18 1010.35C1060.39 1013.71 1080.73 1010.49 1085.9 1000.61C1098.06 975.224 1061.46 970.001 1045.79 965.902C992.255 951.893 995.208 889.486 1053.17 883.408Z"/><path fill="#010201" d="M532.676 883.338C547.965 881.81 561.921 883.967 574.759 893.185C580.03 896.97 592.528 908.462 593.549 914.871C591.768 916.736 574.8 924.094 571.488 925.652C569.239 921.952 566.402 917.09 563.461 914.027C557.414 907.661 549.026 904.045 540.246 904.016C529.304 904.017 511.832 912.558 514.702 924.039C521.264 950.291 565.328 944.778 583.793 964.03C613.447 994.949 583.615 1032.83 549.249 1033.7C519.341 1034.04 496.045 1028.03 483.853 997.18C491.682 995.24 499.445 993.042 507.129 990.589C509.81 994.242 514.067 1000.79 518.304 1003.45C563.174 1031.64 600.839 979.381 534.931 968.031C517.782 963.527 492.886 952.466 490.216 932.875C486.108 902.726 505.853 888.497 532.676 883.338Z"/><path fill="#010201" d="M1244.41 885.46L1259.22 885.55C1242.57 914.463 1224.91 942.779 1206.26 970.446C1206.65 990.698 1206.34 1010.91 1206.81 1031.34L1181.4 1031.32C1180.68 1013.07 1183.33 985.444 1178.72 968.567C1178.26 966.898 1168.31 952.058 1166.21 948.403L1165.69 947.478C1155.87 930.739 1133.63 899.635 1127.16 885.913C1136.91 885.447 1146.75 885.794 1156.51 885.994C1167.6 906.694 1185.29 928.521 1192.67 950.101C1197.07 938.231 1223.18 897.513 1231.01 886.054L1244.41 885.46Z"/><path fill="#010201" fill-opacity="0.98823529" d="M1397.5 885.404C1437.07 885.321 1477.98 884.7 1517.45 885.423L1517.33 907.875L1469.96 908.129C1469.57 933.659 1469.94 960.143 1469.94 985.75L1470.06 1030.71C1461.9 1031.01 1452.7 1030.81 1444.46 1030.82C1443.56 990.959 1444.25 947.618 1444.16 907.519C1428.43 907.286 1412.21 907.472 1396.44 907.453C1396.24 902.245 1395.18 889.368 1397.5 885.404Z"/><path fill="#010201" fill-opacity="0.98823529" d="M622.72 885.858C630.887 885.545 640.579 885.758 648.872 885.72C648.418 934.123 648.365 982.529 648.713 1030.93C644.9 1032.16 628.703 1031.59 623.598 1031.53L622.72 885.858Z"/></svg>