<?xml version="1.0" encoding="utf-8" ?><svg xmlns="http://www.w3.org/2000/svg" xmlns:xlink="http://www.w3.org/1999/xlink" width="1024" height="1024" viewBox="0 0 1024 1024"><path fill="#BC1E14" d="M342.042 393.17C357.361 392.424 378.656 393.043 394.431 393.04L495.58 393.017L617.825 392.99C638.283 392.98 658.747 392.832 679.2 392.966C684.291 392.848 690.351 395.81 691.168 401.343C692.574 410.85 691.98 421.429 691.979 431.096L691.979 488.836L692.011 610.042C692.032 629.349 692.127 648.656 692.181 667.96C692.204 676.177 689.519 681.21 681.106 682.972C665.324 683.743 644.247 683.046 627.959 683.05L523.36 683.153L404.397 683.205C384.556 683.216 364.438 683.991 344.631 683.224C342.308 683.134 340.264 682.706 338.191 681.615C335.385 680.138 333.014 677.066 332.143 674.024C330.58 668.566 331.658 622.451 331.625 613.5L331.526 480.15C331.522 456.002 331.444 431.848 331.615 407.703C331.67 399.918 334.417 395.465 342.042 393.17ZM356.475 448.971L356.524 658.165L573.085 658.114C604.39 658.106 636.238 658.408 667.498 658.025L667.485 527.453C667.499 501.764 667.037 474.482 667.674 448.951C595.741 448.131 522.082 448.417 450.111 448.751L356.475 448.971ZM406.265 431.989C411.791 430.612 415.137 424.996 413.716 419.482C412.296 413.967 406.653 410.667 401.15 412.132C395.709 413.58 392.454 419.145 393.859 424.597C395.263 430.05 400.802 433.349 406.265 431.989ZM369.751 432.177C373.435 431.491 376.451 428.848 377.615 425.286C378.78 421.724 377.907 417.81 375.34 415.081C372.772 412.351 368.919 411.24 365.292 412.184C359.951 413.575 356.67 418.946 357.872 424.333C359.073 429.72 364.325 433.188 369.751 432.177ZM442.16 431.761C447.614 430.131 450.693 424.367 449.014 418.928C447.335 413.489 441.544 410.463 436.12 412.19C430.765 413.896 427.785 419.599 429.443 424.969C431.1 430.339 436.776 433.37 442.16 431.761Z"/><path fill="#BC1E14" d="M382.017 474.682C399.55 475.345 418.764 474.459 436.769 474.947C437.203 493.139 436.82 512.2 437.011 530.524C418.738 530.637 400.465 530.637 382.192 530.524C381.42 513.717 382.04 491.884 382.017 474.682Z"/><path fill="#BC1E14" d="M382.082 576.796C387.83 577.236 396.048 577.013 401.898 577.017C413.542 577.043 425.186 576.987 436.828 576.847C437.106 595.357 436.693 613.95 437.087 632.514C419.082 632.807 399.971 632.177 382.165 632.822C381.647 614.929 382.091 594.884 382.082 576.796Z"/><path fill="#BC1E14" d="M639.084 474.735L640.733 474.887C641.634 476.322 641.406 524.81 641.422 530.887C624.93 530.518 607.425 530.788 590.854 530.796C589.221 530.814 588.65 530.939 587.136 530.273C586.113 527.053 586.797 482.044 586.487 474.931C603.855 474.585 621.621 474.955 639.084 474.735Z"/><path fill="#BC1E14" d="M518.434 474.876C536.57 474.756 554.706 474.769 572.842 474.917C573.325 492.973 572.964 512.524 573.087 530.721L568.875 530.766L518.536 530.631L518.434 474.876Z"/><path fill="#BC1E14" d="M519.225 576.73C535.427 577.429 556.358 576.916 572.849 576.921C573.238 595.21 572.996 614.241 573.011 632.584C554.924 632.844 536.669 632.528 518.529 632.715C518.66 625.522 517.821 579.931 519.225 576.73Z"/><path fill="#BC1E14" d="M450.786 576.971C468.47 577.254 487.349 576.961 505.053 576.829C505.051 583.877 506.27 630.079 504.457 632.55C486.583 632.683 468.708 632.69 450.833 632.572C450.756 629.622 450.807 626.423 450.858 623.453C451.124 608.046 450.237 592.348 450.786 576.971Z"/><path fill="#BC1E14" d="M450.69 474.867C468.196 474.829 487.623 474.391 504.975 474.934C504.841 482.84 506.345 525.3 504.785 530.61C486.756 530.7 468.726 530.665 450.697 530.505C451.331 513.652 451.012 491.85 450.69 474.867Z"/><path fill="#BC1E14" d="M586.769 576.724C592.367 577.148 600.421 576.944 606.27 576.954C617.909 577.006 629.549 576.965 641.187 576.832C641.228 594.494 641.914 614.526 641.384 632.029L640.522 632.509L586.573 632.511C587.441 616.196 586.777 593.323 586.769 576.724Z"/><path fill="#BC1E14" d="M382.369 544.257C399.29 543.713 419.936 544.064 436.959 544.269C436.766 550.187 437.353 557.652 436.839 563.352L382.271 563.404C382.216 560.464 381.737 545.95 382.369 544.257Z"/><path fill="#BC1E14" d="M589.631 544.234C606.547 544.122 624.486 543.832 641.332 544.279C641.384 548.916 641.705 558.615 641.202 562.86C639.828 563.669 638.172 563.418 636.375 563.464L586.543 563.404C586.708 557.285 586.765 551.164 586.713 545.043C587.586 544.096 587.915 544.399 589.631 544.234Z"/><path fill="#BC1E14" d="M518.446 544.183C535.492 544.202 556.177 543.657 572.935 544.526C573.044 550.78 572.988 557.224 573.012 563.496C557.126 562.821 534.593 563.212 518.484 563.467L518.446 544.183Z"/><path fill="#BC1E14" d="M485.541 544.254C492.045 544.217 498.482 544.136 504.985 544.395L505.065 563.372C494.243 563.021 481.714 563.329 470.75 563.371L450.642 563.381C450.481 557.274 450.604 550.642 450.604 544.495C459.592 543.825 476 544.274 485.541 544.254Z"/><path d="M618.858 537.582L619.179 537.843L618.747 539.301C617.349 540.59 617.195 540.146 614.706 540.288L614.317 539.508C617.562 538.8 616.67 539.667 618.858 537.582Z"/><path fill="#CD2D1F" d="M440.347 270.233C448.644 269.747 460.194 270.077 468.759 270.08L522.146 270.095L560.719 270.107C569.443 270.116 580.845 269.636 589.235 271.207C644.234 281.504 640.905 362.733 583.621 368.408C577.484 368.973 566.418 368.588 559.83 368.59L512.394 368.631L465.206 368.775C446.117 368.81 429.591 370.87 413.723 358.17C403.52 350.039 396.991 338.167 395.589 325.196C392.644 296.308 411.378 272.992 440.347 270.233ZM571.464 349.813C590.415 347.218 603.756 333.473 600.945 313.705C599.8 305.267 595.267 297.659 588.39 292.637C577.834 284.892 566.321 286.015 553.914 286.004L526.665 286.013C503.081 286.021 475.592 285.348 452.306 286.141C422.925 289.476 412.169 324.929 434.85 343.51C445.561 352.286 461.607 349.929 474.93 349.923L522.619 349.838C533.045 349.785 543.472 349.794 553.899 349.864C558.565 349.897 567.03 350.419 571.464 349.813Z"/><path fill="#CD2D1F" d="M492.628 298.643C500.535 297.989 523.294 297.983 531.244 298.596C531.376 311.589 531.015 324.181 531.358 337.361C526.539 337.841 497.041 337.831 493.448 336.642C492.015 334.671 492.16 302.958 492.628 298.643Z"/><path fill="#CD2D1F" d="M720.201 508.122C719.993 489.671 715.985 472.492 739.874 474.117C745.05 474.469 752.131 474.092 757.505 474.091L810.368 474.054C817.866 474.069 828.541 474.162 830.174 484.286C831.621 493.255 830.906 504.257 830.912 513.533L831.004 570.612C831.068 575.936 831.556 581.098 827.769 585.411C825.001 588.677 820.976 589.93 816.775 589.945C792.688 590.032 768.589 589.97 744.5 589.987C739.558 589.99 734.447 590.189 729.57 589.399C727.435 589.054 725.108 587.244 723.582 585.811C721.735 584.109 720.823 581.835 720.575 579.371C719.778 571.439 720.091 563.024 720.102 555.06L720.201 508.122ZM768.975 536.267C765.916 533.003 761.246 526.965 757.955 525.099C753.287 522.452 747.043 527.159 747.556 532.23C747.935 535.969 754.912 541.415 757.15 543.559C759.825 546.489 764.391 552.674 768.563 552.945C773.467 553.264 799.33 525.908 803.464 520.929C804.467 519.721 805.87 518.182 805.868 516.515C805.866 514.31 804.375 511.564 802.618 510.258C800.702 508.834 798.446 508.688 796.156 508.945C790.946 511.993 774.076 530.776 768.975 536.267Z"/><path fill="#BC1E14" d="M720.201 508.122C721.111 509.77 720.591 565.291 720.666 571.775C722.808 573.534 726.406 576.863 728.963 577.312C734.742 578.325 742.086 578.041 747.96 578.031L774.802 577.985C789.479 577.987 804.893 578.315 819.548 577.642C824.466 577.416 827.773 574.041 831.004 570.612C831.068 575.936 831.556 581.098 827.769 585.411C825.001 588.677 820.976 589.93 816.775 589.945C792.688 590.032 768.589 589.97 744.5 589.987C739.558 589.99 734.447 590.189 729.57 589.399C727.435 589.054 725.108 587.244 723.582 585.811C721.735 584.109 720.823 581.835 720.575 579.371C719.778 571.439 720.091 563.024 720.102 555.06L720.201 508.122Z"/><path fill="#BC1E14" d="M208.115 426.508C239.486 427.034 271.882 426.45 303.405 426.588C303.593 436.67 303.433 447.39 303.434 457.518C294.12 457.032 280.879 457.405 271.167 457.403L208.256 457.486C208.1 447.161 208.053 436.834 208.115 426.508Z"/><path fill="#BC1E14" d="M208.03 569.042L303.439 568.967C303.472 572.918 304.081 597.899 302.912 599.608C271.784 600.392 239.479 599.371 208.193 599.848C207.716 590.747 208.092 578.414 208.03 569.042Z"/><path fill="#BC1E14" d="M208.422 474.086C239.68 474.632 271.857 473.804 303.351 474.162L303.394 504.599L208.463 504.577C208.359 494.414 208.345 484.25 208.422 474.086Z"/><path fill="#BC1E14" d="M208.041 521.511L303.436 521.497C303.455 525.286 303.987 550.536 302.855 552.003L208.105 552.007C208.281 542.171 208.395 531.288 208.041 521.511Z"/><path fill="#BC1E14" d="M548.816 727.566C569.827 726.941 594.078 727.579 615.39 727.541L640.352 727.508C647.145 727.504 659.669 725.119 657.341 736.229C656.979 737.957 654.818 739.078 653.377 739.772C645.906 740.127 636.545 739.862 628.93 739.861L583.808 739.853C574.697 739.853 565.575 739.901 556.48 739.933C553.433 739.7 547.176 740.697 545.569 737.261C543.3 732.41 544.3 729.806 548.816 727.566Z"/><path fill="#BC1E14" d="M509.151 720.3C516.778 719.817 523.375 725.557 523.952 733.177C524.529 740.798 518.871 747.465 511.259 748.136C506.25 748.578 501.39 746.292 498.538 742.151C495.685 738.01 495.279 732.655 497.476 728.132C499.673 723.609 504.133 720.617 509.151 720.3Z"/><path fill="#BC1E14" d="M420.844 720.687C425.721 719.462 430.881 720.96 434.343 724.607C437.806 728.254 439.036 733.484 437.56 738.292C436.084 743.099 432.133 746.739 427.22 747.815C419.783 749.444 412.415 744.803 410.672 737.391C408.93 729.98 413.459 722.542 420.844 720.687Z"/><path fill="#BC1E14" d="M380.128 720.327C387.738 719.525 394.571 725.011 395.431 732.614C396.292 740.218 390.858 747.092 383.262 748.011C375.582 748.939 368.617 743.434 367.747 735.748C366.877 728.062 372.436 721.138 380.128 720.327Z"/><path fill="#BC1E14" d="M465.893 720.338C473.529 719.573 480.343 725.132 481.13 732.765C481.917 740.399 476.379 747.23 468.747 748.039C461.084 748.851 454.219 743.285 453.429 735.62C452.639 727.955 458.225 721.105 465.893 720.338Z"/></svg>