<?xml version="1.0" encoding="utf-8" ?><svg xmlns="http://www.w3.org/2000/svg" xmlns:xlink="http://www.w3.org/1999/xlink" width="1024" height="1024" viewBox="0 0 1024 1024"><path fill="#C6190D" d="M453.637 168.081C458.829 168.072 475.206 167.719 479.306 168.706C481.285 170.689 489.937 217.792 490.732 225.043C491.296 230.193 484.186 243.803 482.727 250.559C480.163 262.429 481.952 273.02 481.064 284.544C480.889 297.462 481.581 314.87 480.91 326.983C481.079 347.443 481.495 367.9 482.159 388.35C489.566 388.223 496.715 388.368 504.111 388.509C547.889 389.347 592.019 387.702 635.771 388.523C634.901 402.812 633.94 425.344 631.787 439.043C649.762 439.043 670.262 438.567 688.031 439.106C688.01 429.056 687.991 418.997 688.062 408.948C688.098 403.802 689.333 392.708 688.726 388.33C696.544 388.09 704.7 388.059 712.522 388.184C730.15 388.465 748.043 387.765 765.639 388.275C766.616 387.453 767.94 383.548 768.534 382.075C769.457 379.883 770.045 378.683 771.218 376.615C772.911 363.074 770.389 363.609 776.124 350.392C765.797 304.149 791.884 252.806 822.418 218.377C824.043 216.544 827.454 214.972 829.764 214.019C834.093 214.795 834.892 215.037 839.002 216.658C836.188 232.836 832.68 249.45 828.721 265.41C827.697 268.9 824.739 274.429 822.343 277.14C812.997 287.717 812.955 298.492 815.742 311.496C816.54 315.215 817.301 324.852 820.962 326.85C826.058 326.48 841.066 293.245 838.603 285.355C837.079 280.473 836.091 274.684 834.625 269.736C835.985 253.951 839.319 233.253 842.143 217.705C846.722 217.978 850.376 217.941 853.579 221.786C857.631 226.65 859.754 234.465 861.514 240.503C868.702 265.169 872.844 291.528 870.585 317.235C869.408 330.621 866.233 342.401 860.6 354.621C859.239 357.573 855.188 362.753 854.672 364.669C852.931 371.14 854.799 378.261 851.59 384.778C850.705 386.575 850.679 386.765 851.231 388.034L851.701 388.392C860.991 392.482 873.269 401.282 875.931 411.407C882.946 438.086 878.875 475.528 879.906 503.417C880.252 512.779 880.315 540.535 879.518 547.994L878.988 731.813L879.055 782.526C879.138 801.38 882.064 824.338 867.666 838.753C860.395 845.895 850.947 850.405 840.822 851.567C833.734 852.411 822.046 852.107 814.748 852.084L774.864 852.023L638.497 852.044L195.484 852.087C179.697 851.974 168.27 850.377 156.559 838.719C150.616 832.803 147.056 825.726 145.731 817.416C144.139 807.434 144.537 796.201 144.545 785.987L144.565 744.113L144.367 616.484C144.381 595.715 145.33 568.764 144.435 548.371C143.943 542.696 144.146 534.814 144.151 529.027L144.407 491.009L144.424 452.427C144.451 433.344 142.572 412.036 158.585 398.278C170.692 387.876 186.003 388.78 200.995 388.614C207.894 388.538 215.3 388.27 222.124 388.849C217.179 371.371 219.662 369.85 208.66 352.549C213.309 352.37 220.642 354.067 226.049 354.183C252.623 354.757 265.942 347.337 286.341 332.518C286.31 334.607 286.012 338.638 286.733 340.384C287.67 352.665 291.054 378.043 295.734 389.232C299.608 388.187 303.814 388.358 307.804 388.416C314.434 388.445 332.827 388.085 338.494 388.926C338.162 372.845 338.622 356.021 338.426 339.813C338.232 323.857 341.87 309.588 353.686 298.166C371.62 280.833 394.507 284.63 417.4 284.468C428.71 284.388 440.816 284.128 452.102 284.428C452.067 272.277 452.773 259.147 449.347 247.393C447.346 240.528 442.834 233.386 442.053 226.322C441.4 220.416 451.165 175.814 453.637 168.081ZM450.155 388.614C450.872 385.471 450.903 374.961 451.05 371.508C451.667 357.082 450.819 341.221 451.823 326.969C440.545 327.041 429.267 327.022 417.99 326.912C408.603 326.793 391.396 324.99 383.365 331.717C377.635 336.516 378.383 348.55 378.441 355.677L378.706 388.977C401.591 387.694 427.514 389.516 450.155 388.614Z"/><path fill="#A61607" d="M453.637 168.081C458.829 168.072 475.206 167.719 479.306 168.706C481.285 170.689 489.937 217.792 490.732 225.043C491.296 230.193 484.186 243.803 482.727 250.559C480.163 262.429 481.952 273.02 481.064 284.544C480.889 297.462 481.581 314.87 480.91 326.983C481.079 347.443 481.495 367.9 482.159 388.35C489.566 388.223 496.715 388.368 504.111 388.509C547.889 389.347 592.019 387.702 635.771 388.523C634.901 402.812 633.94 425.344 631.787 439.043C649.762 439.043 670.262 438.567 688.031 439.106C689.594 441.325 692.884 445.716 693.511 448.019C695.103 453.873 694.957 461.642 694.994 467.749C695.05 474.617 695.011 481.485 694.878 488.352C694.6 498.618 692.182 536.148 695.743 542.822C695.553 544.478 695.526 546.621 694.593 547.873L693.661 548.06C689.364 548.872 677.962 548.598 673.209 548.58L639.749 548.494C599.062 548.494 554.109 549.442 513.774 548.008C513.815 532.707 514.617 517.493 514.175 502.431C514.788 487.757 508.066 480.553 500.639 469.193C498.408 465.781 501.801 457.326 496.946 456.357C492.992 456.614 487.784 456.523 483.734 456.57C480.709 456.894 477.52 456.953 474.472 456.914C460.375 456.735 446.092 457.172 432.011 456.76C431.994 461.168 432.178 466.45 430.899 470.579C428.398 478.657 421.936 482.368 420.437 491.381C417.44 509.401 419.921 529.904 420.099 547.938C413.287 548.709 404.956 548.3 397.998 548.203C389.06 548.108 380.122 548.082 371.184 548.125C366.545 548.132 333.708 548.753 330.925 548.072C330.64 547.976 329.957 547.555 329.663 547.387C327.558 529.403 322.337 510.372 318.584 492.55C311.355 458.23 302.612 423.575 295.734 389.232C299.608 388.187 303.814 388.358 307.804 388.416C314.434 388.445 332.827 388.085 338.494 388.926C338.162 372.845 338.622 356.021 338.426 339.813C338.232 323.857 341.87 309.588 353.686 298.166C371.62 280.833 394.507 284.63 417.4 284.468C428.71 284.388 440.816 284.128 452.102 284.428C452.067 272.277 452.773 259.147 449.347 247.393C447.346 240.528 442.834 233.386 442.053 226.322C441.4 220.416 451.165 175.814 453.637 168.081ZM450.155 388.614C450.872 385.471 450.903 374.961 451.05 371.508C451.667 357.082 450.819 341.221 451.823 326.969C440.545 327.041 429.267 327.022 417.99 326.912C408.603 326.793 391.396 324.99 383.365 331.717C377.635 336.516 378.383 348.55 378.441 355.677L378.706 388.977C401.591 387.694 427.514 389.516 450.155 388.614Z"/><path fill="#C6190D" d="M453.637 168.081C458.829 168.072 475.206 167.719 479.306 168.706C481.285 170.689 489.937 217.792 490.732 225.043C491.296 230.193 484.186 243.803 482.727 250.559C480.163 262.429 481.952 273.02 481.064 284.544C480.889 297.462 481.581 314.87 480.91 326.983C481.079 347.443 481.495 367.9 482.159 388.35C482.425 395.602 482.527 402.859 482.467 410.116C472.058 410.5 461.107 410.356 450.654 410.372C449.863 403.214 451.006 395.689 450.155 388.614C450.872 385.471 450.903 374.961 451.05 371.508C451.667 357.082 450.819 341.221 451.823 326.969C452.429 313.267 452.152 298.184 452.102 284.428C452.067 272.277 452.773 259.147 449.347 247.393C447.346 240.528 442.834 233.386 442.053 226.322C441.4 220.416 451.165 175.814 453.637 168.081Z"/><path fill="#8C1304" d="M631.787 439.043C649.762 439.043 670.262 438.567 688.031 439.106C689.594 441.325 692.884 445.716 693.511 448.019C695.103 453.873 694.957 461.642 694.994 467.749C695.05 474.617 695.011 481.485 694.878 488.352C694.6 498.618 692.182 536.148 695.743 542.822C695.553 544.478 695.526 546.621 694.593 547.873L693.661 548.06C688.263 547.671 676.735 548.05 670.773 548.026L617.96 547.986C617.639 520.437 622.338 490.442 622.963 462.657C623.154 454.146 625.056 444.83 631.787 439.043Z"/><path fill="#C6190D" d="M424.045 438.041C421.672 436.771 419.572 434.624 419.041 432.037C417.883 426.282 417.151 414.566 425.111 413.646C427.606 413.357 429.722 412.98 432.273 412.962C456.698 412.789 481.243 412.832 505.669 413.001C509.781 415.357 510.339 415.84 512.902 419.921C513.167 425.859 513.898 434.003 508.442 437.989L424.045 438.041Z"/><path fill="#8C1304" d="M295.734 389.232C299.608 388.187 303.814 388.358 307.804 388.416C311.451 393.83 326.273 466.382 329.01 477.823L339.735 521.087C341.62 528.891 344.369 540.042 345.354 547.926C341.262 547.943 334.83 547.765 330.925 548.072C330.64 547.976 329.957 547.555 329.663 547.387C327.558 529.403 322.337 510.372 318.584 492.55C311.355 458.23 302.612 423.575 295.734 389.232Z"/><path fill="#8C1304" d="M424.045 438.041L508.442 437.989C503.59 443.286 500.99 448.764 498.649 455.57C498.534 455.905 497.182 456.297 496.946 456.357C492.992 456.614 487.784 456.523 483.734 456.57C479.032 456.158 470.651 456.385 465.681 456.384L432.223 456.393C431.99 444.594 427.065 445.591 424.045 438.041Z"/><path fill="#A61607" d="M829.764 214.019C834.093 214.795 834.892 215.037 839.002 216.658C836.188 232.836 832.68 249.45 828.721 265.41C827.697 268.9 824.739 274.429 822.343 277.14C812.997 287.717 812.955 298.492 815.742 311.496C816.54 315.215 817.301 324.852 820.962 326.85C826.058 326.48 841.066 293.245 838.603 285.355C837.079 280.473 836.091 274.684 834.625 269.736C835.985 253.951 839.319 233.253 842.143 217.705C846.722 217.978 850.376 217.941 853.579 221.786C857.631 226.65 859.754 234.465 861.514 240.503C868.702 265.169 872.844 291.528 870.585 317.235C869.408 330.621 866.233 342.401 860.6 354.621C859.239 357.573 855.188 362.753 854.672 364.669C852.931 371.14 854.799 378.261 851.59 384.778C850.705 386.575 850.679 386.765 851.231 388.034L851.701 388.392C860.991 392.482 873.269 401.282 875.931 411.407C882.946 438.086 878.875 475.528 879.906 503.417C880.252 512.779 880.315 540.535 879.518 547.994C874.345 548.133 868.69 548.04 863.478 548.046C842.616 547.685 819.183 549.446 798.356 548.073C804.541 547.601 814.035 547.909 820.484 547.949C819.689 528.5 820.868 515.603 818.556 494.993C817.535 485.843 816.132 476.74 814.352 467.708C812.449 457.996 809.799 446.391 809.201 436.63C808.7 428.464 809.916 417.448 810.627 409.062C795.649 406.35 785.527 400.732 777.541 387.373C775.637 384.187 773.706 378.97 771.218 376.615C772.911 363.074 770.389 363.609 776.124 350.392C765.797 304.149 791.884 252.806 822.418 218.377C824.043 216.544 827.454 214.972 829.764 214.019Z"/><path fill="#8C1304" d="M851.701 388.392C860.991 392.482 873.269 401.282 875.931 411.407C882.946 438.086 878.875 475.528 879.906 503.417C880.252 512.779 880.315 540.535 879.518 547.994C874.345 548.133 868.69 548.04 863.478 548.046C863.652 534.667 863.374 516.189 862.247 502.977C861.126 491.088 859.791 479.22 858.245 467.379C856.585 454.76 846.776 395.312 851.701 388.392Z"/><path fill="#8C1304" d="M811.368 350.748C820.769 349.511 829.387 356.143 830.6 365.546C831.813 374.95 825.16 383.552 815.753 384.741C806.38 385.926 797.815 379.302 796.607 369.931C795.398 360.561 802.001 351.98 811.368 350.748Z"/><path fill="#C6190D" d="M837.086 336.053L837.633 336.124C840.002 337.899 843.379 341.344 845.085 343.755C843.213 342.911 837.829 337.945 837.086 336.053Z"/><path fill="#A61607" d="M144.435 548.371C143.943 542.696 144.146 534.814 144.151 529.027L144.407 491.009L144.424 452.427C144.451 433.344 142.572 412.036 158.585 398.278C170.692 387.876 186.003 388.78 200.995 388.614C207.894 388.538 215.3 388.27 222.124 388.849C231.375 423.505 240.026 461.307 248.303 496.321L256.574 531.622C257.768 536.619 259.784 542.843 260.57 547.727C248.03 548.91 233.785 548.316 220.99 548.201L170.491 548.08C165.888 548.074 147.801 547.619 144.435 548.371Z"/><path fill="#8C1304" d="M771.218 376.615C773.706 378.97 775.637 384.187 777.541 387.373C785.527 400.732 795.649 406.35 810.627 409.062C809.916 417.448 808.7 428.464 809.201 436.63C809.799 446.391 812.449 457.996 814.352 467.708C816.132 476.74 817.535 485.843 818.556 494.993C820.868 515.603 819.689 528.5 820.484 547.949C814.035 547.909 804.541 547.601 798.356 548.073C778.225 548.019 757.622 548.679 737.569 547.992C738.22 542.887 740.127 537.715 741.64 532.801C751.191 502.028 768.364 474.131 785.03 446.777C793.631 432.66 796.128 428.541 799.295 412.352C781.973 404.049 777.193 398.708 768.534 382.075C769.457 379.883 770.045 378.683 771.218 376.615Z"/><path fill="#A61607" d="M688.726 388.33C696.544 388.09 704.7 388.059 712.522 388.184C730.15 388.465 748.043 387.765 765.639 388.275C762.458 396.303 758.179 404.039 754.127 411.676L737.315 443.052C724.42 467.033 711.754 491.258 702.745 517.054C699.665 525.874 698.214 534.112 695.743 542.822C692.182 536.148 694.6 498.618 694.878 488.352C695.011 481.485 695.05 474.617 694.994 467.749C694.957 461.642 695.103 453.873 693.511 448.019C692.884 445.716 689.594 441.325 688.031 439.106C688.01 429.056 687.991 418.997 688.062 408.948C688.098 403.802 689.333 392.708 688.726 388.33Z"/><path fill="#8C1304" d="M385.155 626.145C395.62 625.509 409.453 625.998 420.167 626.025L481.699 626.044L582.124 626.034C589.643 626.03 638.853 625.226 643.223 626.981C646.349 628.261 648.793 630.797 649.957 633.968C652.462 640.907 647.364 646.253 640.953 648.009C634.741 648.965 618.936 648.546 612.247 648.518L561.77 648.472L457.925 648.455C435.057 648.485 411.876 649.176 389.031 647.987C383.347 647.691 377.561 646.655 375.559 640.493C372.977 632.542 377.892 628.104 385.155 626.145Z"/><path fill="#8C1304" d="M262.127 386.189C264.232 386.431 266.249 387.172 268.01 388.35C277.212 394.376 279.56 412.904 281.819 423.152C283.796 431.953 285.857 440.735 288.002 449.496L302.903 512.872C305.642 524.463 308.705 536.004 311.186 547.639C306.838 548.282 304.594 548.324 300.203 548.26C293.958 548.454 289.745 548.28 283.615 547.774C281.898 540.784 280.422 532.206 278.817 524.961C274.79 506.795 270.603 488.666 266.257 470.574L256.696 430.641C254.86 422.847 252.546 414.336 251.6 406.416C250.394 396.324 251.12 388.697 262.127 386.189Z"/><path fill="#8C1304" d="M492.515 493.311C494.722 493.68 497.071 494.767 498.653 496.371C499.636 497.361 500.303 498.622 500.57 499.992C501.372 504.017 501.04 516.322 501.098 521.082C501.207 530.014 501.421 539.075 501.568 548.011L495.18 548.311L486.257 547.893C487.294 533.83 486.431 520.115 486.938 506.082C487.143 500.39 488.324 496.989 492.515 493.311Z"/><path fill="#8C1304" d="M438.163 493.936C442.466 494.131 443.842 495.221 446.498 498.536C446.505 514.994 446.669 531.452 446.99 547.907L441.125 548.252L431.649 547.952C433.845 531.966 431.493 514.8 433.486 498.757C433.783 496.361 436.227 495.184 438.163 493.936Z"/><path fill="#8C1304" d="M465.267 493.952C468.591 494.132 472.614 495.704 473.05 499.386C473.82 505.889 473.54 512.863 473.562 519.414C473.622 528.952 473.799 538.489 474.093 548.022L468.011 548.204L459.164 547.956C459.456 539.773 459.659 531.588 459.773 523.401C459.805 515.595 459.376 506.355 460.516 498.644C460.848 496.396 463.321 495.191 465.267 493.952Z"/><path fill="#C6190D" d="M629.201 208.416C639.752 200.213 644.28 201.1 657.297 201.479C673.139 201.941 689.215 200.76 705.013 202.38C740.878 207.322 765.681 240.374 781.886 269.723C780.134 271.409 778.221 273.337 776.408 274.92C774.005 276.993 771.063 279.735 767.687 279.667C761.73 279.547 739.468 259.335 721.234 259.231C712.767 259.182 705.966 262.788 700.122 268.574C688.25 283.121 689.541 302.102 689.109 319.747C688.461 342.602 688.334 365.469 688.726 388.33C689.333 392.708 688.098 403.802 688.062 408.948C687.991 418.997 688.01 429.056 688.031 439.106C670.262 438.567 649.762 439.043 631.787 439.043C633.94 425.344 634.901 402.812 635.771 388.523C636.81 378.853 636.16 366.578 636.884 356.572C637.593 346.762 637.162 336.799 637.991 326.848C638.116 317.426 637.879 308.004 637.283 298.6C637.008 294.136 636.2 288.537 636.129 284.418C634.307 280.079 632.881 277.045 629.85 273.398C620.319 261.897 607.969 260.268 594.662 265.809C585.683 272.284 561.45 274.305 556.269 264.006C552.998 257.504 552.816 218.79 555.878 212.177C561.161 200.767 584.99 206.218 594.59 211.134C597.764 212.798 601.165 213.988 604.684 214.666C614.404 216.455 621.448 213.76 629.201 208.416Z"/><path fill="#C6190D" d="M594.662 265.809C585.683 272.284 561.45 274.305 556.269 264.006C552.998 257.504 552.816 218.79 555.878 212.177C561.161 200.767 584.99 206.218 594.59 211.134C593.086 216.347 592.841 261.321 594.662 265.809Z"/><path fill="#A61607" d="M594.59 211.134C597.764 212.798 601.165 213.988 604.684 214.666C614.404 216.455 621.448 213.76 629.201 208.416C631.445 213.057 632.065 268.164 629.85 273.398C620.319 261.897 607.969 260.268 594.662 265.809C592.841 261.321 593.086 216.347 594.59 211.134Z"/><path fill="#8C1304" d="M700.122 268.574C691.779 264.825 709.206 250.001 714.542 248.501C727.145 244.957 738.715 248.694 749.945 254.674C757.144 258.543 771.479 268.592 776.408 274.92C774.005 276.993 771.063 279.735 767.687 279.667C761.73 279.547 739.468 259.335 721.234 259.231C712.767 259.182 705.966 262.788 700.122 268.574Z"/><path fill="#C6190D" d="M201.52 345.016C198.079 342.26 192.07 339.992 187.79 337.585C142.138 311.901 136.553 248.808 173.153 213.028C182.045 209.598 183.257 226.031 185.377 231.792C189.25 242.318 192.07 266.18 201.016 273.299C205.501 276.868 219.454 279.022 224.684 280.74C236.08 284.482 243.658 274.561 250.903 267.815C255.487 263.652 261.23 260.13 263.971 254.485C269.053 240.461 247.563 201.78 252.142 191.098C257.785 185.566 273.524 193.408 279.149 196.777C295.349 206.48 307.848 223.163 312.478 241.485C317.712 262.537 314.172 284.813 302.669 303.206C298.611 309.675 293.116 315.55 289.413 322.103C287.218 329.908 286.883 332.282 286.733 340.384C286.012 338.638 286.31 334.607 286.341 332.518C265.942 347.337 252.623 354.757 226.049 354.183C220.642 354.067 213.309 352.37 208.66 352.549C206.238 349.835 204.095 347.588 201.52 345.016Z"/><path fill="#A61607" d="M201.52 345.016C204.082 343.287 212.509 345.511 216.001 345.981C237.897 348.929 259.154 342.49 277.252 330.184C280.762 327.797 285.422 322.976 289.413 322.103C287.218 329.908 286.883 332.282 286.733 340.384C286.012 338.638 286.31 334.607 286.341 332.518C265.942 347.337 252.623 354.757 226.049 354.183C220.642 354.067 213.309 352.37 208.66 352.549C206.238 349.835 204.095 347.588 201.52 345.016Z"/><path fill="#A61607" d="M636.129 284.418C636.2 288.537 637.008 294.136 637.283 298.6C637.879 308.004 638.116 317.426 637.991 326.848C622.876 327.819 598.805 326.726 582.878 326.694L480.91 326.983C481.581 314.87 480.889 297.462 481.064 284.544C485.945 284.074 496.043 284.323 501.26 284.332L538.623 284.465C570.863 284.574 604.035 283.976 636.129 284.418Z"/></svg>