<?xml version="1.0" encoding="utf-8" ?><svg xmlns="http://www.w3.org/2000/svg" xmlns:xlink="http://www.w3.org/1999/xlink" width="512" height="512" viewBox="65 65 380 380"><path fill="#B42419" d="M161.898 67.7912C171.619 66.8619 181.019 75.5516 179.769 85.3916C183.802 85.6774 191.301 85.4052 195.675 85.4007L332.235 85.3916C331.279 63.4524 365.529 62.4718 366.186 85.3916L392.119 85.3952C427.351 85.3556 444.117 91.0841 444.139 130.067L444.202 411.093C444.248 419.966 441.141 427.009 435.005 433.374C423.784 445.014 410.598 443.371 395.86 443.37L368.074 443.361L109.647 443.371C105.52 443.37 101.218 443.47 97.1497 442.912C82.112 440.851 67.6035 426.164 67.8668 410.479C67.9673 404.494 67.9882 398.499 67.9937 392.511L67.9859 129.447C67.9923 109.741 70.9379 91.5573 94.477 86.2313C105.726 83.6861 133.859 85.6587 146.541 85.3916C148.062 75.4426 151.565 70.1051 161.898 67.7912ZM332.235 108.231C329.125 113.192 327.45 116.264 327.275 122.347C326.536 152.938 371.577 151.921 371.704 122.652C371.719 118.568 369.45 110.824 366.186 108.231C365.161 117.772 368.319 126.584 359.552 133.995C349.083 142.845 333.948 135.309 332.448 122.379C331.922 117.83 332.104 112.863 332.235 108.231ZM146.541 108.231C135.222 121.957 143.038 143.597 161.328 145.162C175.129 146.342 186.586 133.948 185.01 120.491C184.011 115.026 183.032 112.764 179.769 108.231C179.767 116.274 181.156 127.028 174.831 133.015C167.709 139.758 158.286 139.799 151.441 132.557C142.687 123.295 148.5 111.592 146.541 108.231Z"/><path fill="white" d="M385.116 173.913L438.547 173.913L438.554 368.954C438.553 376.744 438.911 385.551 438.069 393.191C435.986 412.095 419.049 416.514 403.449 416.491L127.375 416.475L111.513 416.495C74.6252 416.504 73.5129 398.127 73.5333 366.741L73.5298 173.913L385.116 173.913Z"/><path fill="#B42419" d="M327.275 313.391C352.633 313.174 361.461 315.228 361.311 342.725C361.238 356.172 363.212 365.051 350.835 373.741C343.596 377.645 339.17 375.943 331.747 376.341C316.695 377.149 318.471 375.585 318.46 361.6L318.461 328.7C318.468 320.606 316.906 313.973 327.275 313.391Z"/><path fill="white" d="M324.207 319.438C334.321 319.484 352.768 316.622 354.993 330.455C356.364 338.976 357.575 359.308 350.835 365.92C345.09 372.286 332.401 370.37 324.207 370.341L324.207 319.438Z"/><path fill="#B42419" d="M214.021 313.391C243.426 313.314 251.949 314.049 252.016 345.733C252.039 356.581 252.686 364.976 243.303 372.562C237.307 376.964 232.114 376.455 224.984 376.305C215.891 376.113 209.472 379.02 209.503 367.857C209.549 351.909 209.452 335.926 209.561 319.977C209.582 316.703 210.701 314.409 214.021 313.391Z"/><path fill="white" d="M214.876 319.438C239.907 319.377 246.86 317.628 246.465 347.474C246.357 355.599 247.339 359.576 241.943 365.92C236.619 371.147 231.802 370.436 224.901 370.37L214.876 370.341L214.876 319.438Z"/><path fill="#B42419" d="M166.561 313.391C178.514 313.103 191.997 317.925 192.708 332.003C193.743 352.487 197.097 366.719 176.674 376.324L163.699 376.347C157.923 376.36 150.652 377.606 150.714 369.532L150.725 324.879C150.684 310.73 154.385 313.306 166.561 313.391Z"/><path fill="white" d="M156.513 319.438L166.138 319.393C185.549 319.221 187.886 326.159 187.573 344.903C187.424 353.889 188.566 358.607 182.735 365.92C177.199 370.784 173.794 370.365 166.762 370.362L156.513 370.341L156.513 319.438Z"/><path fill="#B42419" d="M322.087 212.787C325.22 212.689 326.891 213.635 328.065 216.623C333.775 231.275 340.253 251.829 344.236 266.857C345.544 261.826 347.172 257.173 348.74 252.229L357.873 223.534C359.154 219.464 361.244 208.79 368.328 214.167C371.199 216.346 370.425 220.14 370.416 223.541L370.386 270.351C370.312 280.552 364.562 277.566 364.566 273.3C364.579 257.776 363.361 237.752 364.848 222.771L364.506 223.343C358.312 235.697 352.481 260.055 348.026 273.814C346.681 277.97 341.791 278.113 340.642 274.766C334.565 257.064 329.941 238.435 323.004 221.052C322.793 224.886 322.991 230.829 322.994 234.791L322.983 263.814C322.971 266.43 324.507 275.695 321.486 277.108C320.261 277.681 318.216 276.702 317.734 275.497C317.116 273.955 317.093 224.779 317.321 219.298C317.462 215.926 318.8 213.963 322.087 212.787Z"/><path fill="#B42419" d="M169.461 266.857C170.921 262.988 172.474 257.476 173.764 253.441L181.578 229.638C183.047 225.234 184.418 220.769 186.176 216.479C188.408 211.032 195.844 212.881 196.141 216.753C196.588 222.575 196.274 229.127 196.277 234.953L196.29 261.209C196.289 263.666 198.172 281.986 191.284 276.149C189.372 272.482 190.601 228.897 190.461 221.052C189.441 222.902 187.682 229.053 186.896 231.482L176.85 262.218C175.252 266.952 173.771 278.237 167.813 276.679C165.632 276.13 163.526 267.099 162.776 264.887L152.607 234.426C150.846 229.257 150.332 226.242 147.955 221.052C147.511 237.926 148.096 254.918 147.951 271.812C147.906 277.175 144.064 278.632 142.628 275.662C141.881 274.116 141.837 224.853 142.139 219.458C142.323 216.162 144.242 213.922 147.365 212.787C154.36 213.154 156.753 228.564 158.848 234.606C162.532 245.229 165.641 256.312 169.461 266.857Z"/><path fill="#B42419" d="M296.005 212.787C303.205 213.141 301.799 222.027 301.805 227.084L301.812 263.542C301.811 267.103 303.369 276.545 299.067 276.963C294.917 277.366 296.016 270.745 296.014 268.224L296.005 220.225C292.133 231.252 280.72 273.566 277.314 276.198C271.841 280.429 269.456 266.763 268.544 263.991L259.86 238.449C258.412 234.239 256.166 227.059 254.269 223.343C254.187 218.964 254.271 234.756 254.272 235.437L254.274 267.308C254.273 269.906 254.451 272.715 254.018 275.277C253.574 277.899 250 277.533 248.993 275.399C248.193 273.703 248.238 224.477 248.605 219.024C248.869 215.096 252.03 211.448 256.035 213.679C260.042 215.91 273.687 261.109 275.242 266.857C277.122 261.959 278.904 255.935 280.49 250.89L287.847 227.627C289.619 222.057 289.641 214.577 296.005 212.787Z"/><path fill="#B42419" d="M264.998 313.391C270.367 312.995 280.808 336.857 284.417 342.789C286.259 339.49 299.605 314.345 301.205 313.472C302.654 312.682 305.036 313.842 305.348 315.45C305.771 317.632 295.8 334.148 294.146 337.092C292.178 340.647 288.2 346.263 287.183 349.931C285.747 355.108 288.016 372.496 286.136 375.206C285.361 376.324 283.372 376.892 282.368 375.78C279.601 372.717 282.842 353.365 280.672 348.355C278.438 343.199 262.519 318.105 263.104 315.432C263.318 314.452 264.234 313.914 264.998 313.391Z"/><path fill="#B42419" d="M223.461 232.116C226.923 226.911 230.658 217.883 234.416 213.556C236.291 211.396 239.673 213.494 238.908 216.169C237.246 221.973 229.492 232.559 226.555 239.16C226.021 240.369 226.253 246.033 226.28 247.625C226.272 256.193 226.129 264.781 226.433 273.342C226.52 275.777 223.224 279.266 221.443 276.322C219.371 272.895 221.871 246.175 220.541 239.708C218.889 231.679 203.797 216.878 210.755 212.787C214.837 213.347 220.941 227.951 223.461 232.116Z"/><path fill="#EE8071" d="M366.186 91.1777C369.274 91.0204 373.368 91.1538 376.541 91.1616L395.813 91.1714C433.595 91.11 438.56 101.208 438.556 137.431L438.547 168.406L273.125 168.406L73.5298 168.406L73.527 135.786C73.5153 122.18 71.5162 110.047 81.6937 99.4714C91.1573 89.6377 103.995 91.1701 116.434 91.168L146.541 91.1777L146.541 100.118C145.463 101.381 144.092 102.922 142.956 104.125C127.027 120.998 138.492 149.774 161.829 150.761C187.964 151.868 200.627 121.429 179.769 100.643L179.769 91.1777L238.877 91.1777L332.235 91.1777L332.235 100.118C320.425 113.112 316.084 129.807 330.48 143.572C355.983 167.957 397.177 128.588 366.186 100.118L366.186 91.1777Z"/><path fill="#F2BDB9" d="M73.0337 405.348C74.2127 406.106 75.923 408.934 77.043 410.169C90.3328 424.937 104.979 422.054 122.741 422.049L400.993 422.058C416.425 422.066 429.154 422.027 438.547 407.218C438.846 412.831 438.779 415.029 436.846 420.312C431.959 431.919 422.042 437.505 409.77 437.559L110.693 437.568C106.991 437.569 102.7 437.726 99.0526 437.406C82.1057 435.918 73.3096 421.008 73.0337 405.348Z"/><path fill="#EE8071" d="M347.853 74.0684C365.449 73.007 360.232 101.749 360.515 113.43C360.712 121.536 360.5 129.648 350.835 132.299C334.267 133.226 338.126 112.585 337.974 101.8C337.828 91.4353 334.824 76.1208 347.853 74.0684Z"/><path fill="#EE8071" d="M162.805 74.0684C178.207 70.4335 174.328 99.7144 174.245 108.002C174.148 117.773 176.795 129.854 164.152 132.299C149.094 132.514 151.509 112.192 152.174 101.873C152.795 92.218 148.525 74.5513 162.805 74.0684Z"/></svg>