<svg xmlns="http://www.w3.org/2000/svg" xmlns:xlink="http://www.w3.org/1999/xlink" viewBox="50.32 911.94 1997.68 234.71"><path fill="#DC4F44" d="M50.5383 1115.38C58.4992 1114.78 72.8922 1115.15 81.1821 1115.11L142.168 1114.93L339.788 1115.15L916.03 1115.25L1591.31 1115.08L1860.09 1114.8L1949 1114.71C1964.55 1114.69 1983.49 1114.18 1998.84 1114.95L2001.28 1115.77C2003.4 1120.35 2002.4 1139.85 2002.21 1146.19L657.322 1146.18L255.778 1146.23L118.2 1146.3C100.286 1146.28 68.7915 1147.31 52.4428 1145.92C50.8949 1144 51.362 1145.05 50.9084 1142.84C49.9372 1137.6 50.4459 1121.46 50.5383 1115.38Z"/><path fill="#DC4F44" d="M1998.84 1114.95L2001.28 1115.77C2003.4 1120.35 2002.4 1139.85 2002.21 1146.19L657.322 1146.18L255.778 1146.23L118.2 1146.3C100.286 1146.28 68.7915 1147.31 52.4428 1145.92C50.8949 1144 51.362 1145.05 50.9084 1142.84C54.2585 1142.9 58.0904 1143.46 60.4261 1141.19L59.268 1137.48L59.8468 1136.38C151.554 1134.06 246.963 1136.13 339 1135.93L959.196 1136.05L1653.02 1136.12C1767.79 1136.07 1884.37 1134.65 1999 1136.19C1999.07 1129.11 1999.02 1122.03 1998.84 1114.95Z"/><path fill="#010101" d="M51.8648 914.948C64.5551 914.571 77.7893 914.856 90.477 914.625C120.724 914.075 143.845 914.102 167.728 935.465C185.147 951.115 195.576 973.087 196.687 996.478C197.952 1023.95 190.1 1046.31 171.666 1066.41C146.244 1089.53 126.354 1090.26 93.8887 1090.26C79.8775 1090.28 65.8663 1090.19 51.8563 1090C51.238 1082.19 51.2914 1071.39 51.5422 1063.52C53.0952 1014.79 49.2985 963.412 51.8648 914.948ZM81.7955 1062.34C106.817 1062.68 128.787 1065.43 148.442 1046.94C172.071 1020.16 171.268 979.901 144.494 955.049C127.901 939.646 103.345 942.597 82.1922 943.056C80.5395 979.627 81.7929 1025.02 81.7955 1062.34Z"/><path fill="#010101" d="M1739.19 915.57C1749.09 915.333 1759 915.308 1768.9 915.494C1768.61 973.804 1768.62 1032.11 1768.95 1090.42L1738.94 1090.43C1738.42 1064.63 1738.81 1037.42 1738.77 1011.5L1738.78 971.52C1721.87 997.167 1704.02 1027.11 1687.28 1053.48C1670.31 1029.52 1652.2 998.332 1635.48 973.156L1635.89 1090.5C1626.88 1091.03 1614.85 1090.65 1605.62 1090.62C1605.58 1070.25 1603.33 924.26 1606.23 915.504C1615.62 915.313 1625.5 915.481 1634.92 915.489C1640.17 923.041 1647.03 935.303 1652.14 943.56C1663.89 962.588 1675.81 981.51 1687.9 1000.32C1705.22 972.203 1722.31 943.951 1739.19 915.57Z"/><path fill="#010101" d="M856.815 915.449C865.964 914.849 878.276 915.08 887.665 914.976C888.935 948.043 886.108 987.292 887.17 1021.13C887.455 1030.22 887.716 1083.32 886.644 1090.25L859.766 1090.11L773.662 971.338C772.901 982.668 773.499 1000.14 773.554 1011.86C773.757 1038.03 773.812 1064.2 773.717 1090.37C764.114 1090.66 753.463 1090.46 743.773 1090.48C743 1044.07 743.974 997.369 743.589 950.938C743.491 939.178 743.418 926.93 743.953 915.21L771.023 915.197C798.915 949.259 828.206 996.662 856.296 1033.44C857.833 996.952 856.482 952.82 856.815 915.449Z"/><path fill="#010101" d="M633.215 912.495C637.647 912.092 642.097 911.908 646.547 911.942C672.469 911.93 693.536 921.178 711.661 939.393C705.492 945.905 697.712 953.03 691.17 959.327C684.243 952.457 677.583 947.547 668.466 943.91C653.232 937.951 636.24 938.383 621.328 945.107C607.428 951.263 596.62 962.796 591.379 977.067C585.217 993.49 585.513 1015.42 593.306 1031.18C612.181 1069.36 648.704 1072.47 683.353 1056.28C683.762 1044.3 683.409 1032.13 683.218 1020.13C671.218 1019.61 655.74 1020.07 643.475 1020.08C643.184 1013.37 643.347 1005.55 643.326 998.75L643.574 995.309C647.984 991.333 702.78 993.36 712.875 993.49C713.801 1018.8 712.538 1044.9 713.666 1070.62C697.676 1081.72 685.793 1087.93 666.356 1092.19C583.667 1110.32 525.526 1018.82 571.316 949.954C586.02 927.838 607.058 917.296 633.215 912.495Z"/><path fill="#010101" d="M222.329 914.92C253.099 913.406 296.611 914.714 328.422 914.701L328.389 943.311L252.95 943.385L252.94 986.709C276.18 986.841 299.421 986.848 322.661 986.728C323.007 995.534 322.721 1005.54 322.667 1014.44L253.062 1014.32L252.927 1026.5L252.931 1061.89L330.421 1061.99C330.919 1071.63 330.702 1080.84 330.555 1090.47L222.548 1090.5C221.762 1066.25 222.428 1038.68 222.312 1014.12C222.158 981.598 221.631 947.34 222.329 914.92Z"/><path fill="#010101" d="M1470.3 915.099C1502.74 913.826 1543.21 915.048 1576.28 915.111L1576.39 943.437L1500.64 943.427L1500.38 987.022L1570.68 987.065C1570.98 995.731 1570.73 1005.71 1570.72 1014.48C1560.61 1014.65 1506.62 1012.91 1501.81 1016.17L1501.34 1018.75L1501.45 1062.11L1578.78 1062.16C1579.01 1071.42 1578.8 1081.12 1578.73 1090.41L1470.67 1090.19C1469.54 1048.24 1470.99 1005.56 1470.14 963.548C1469.82 947.812 1469.67 930.804 1470.3 915.099Z"/><path fill="#010101" d="M1803.16 915.254C1835.94 914.17 1875.82 914.833 1908.8 915.222L1908.88 943.12L1833.26 943.182C1833.05 957.572 1833.23 972.388 1833.23 986.814L1902.69 986.95C1903.26 994.53 1902.89 1006.54 1902.88 1014.45C1882.44 1014.79 1854.71 1013.04 1835.13 1014.47C1832.84 1016.91 1833.75 1015.43 1833.46 1019.75L1833.54 1062.13C1859.28 1062.02 1885.03 1062.06 1910.77 1062.27C1911.25 1070.51 1910.89 1081.79 1910.86 1090.25L1803.19 1090.04C1802.21 1054.64 1803.57 1016.86 1802.78 981.116C1802.48 967.771 1801.76 925.759 1803.16 915.254Z"/><path fill="#010101" d="M401.17 913.248C432.666 908.727 447.461 919.002 467.337 941.079C460.93 947.704 454.342 954.151 447.582 960.414C446.266 958.991 444.935 957.584 443.587 956.192C433.855 946.164 425.492 940.558 411.124 940.253C398.794 939.991 386.056 948.622 386.813 961.823C387.959 981.812 419.519 986.86 434.111 994.324C442.602 998.666 449.738 1002.04 456.443 1008.97C475.844 1027.94 475.554 1058.92 455.533 1077.37C440.734 1091 426.526 1093.91 407.349 1093.7C380.581 1089.66 361.87 1079.18 347.205 1055.67C351.415 1051.81 366.757 1041.29 371.932 1037.86C382.064 1054.75 396.289 1068.69 418.425 1064.63C425.182 1063.39 432.983 1060.77 436.595 1054.35C449.061 1032.19 421.033 1020.8 404.793 1014.95C384.773 1007.6 361.094 996.866 356.669 973.347C350.544 940.795 369.715 918.331 401.17 913.248Z"/><path fill="#010101" d="M966.268 912.382C995.693 910.592 1013.74 918.615 1032.54 941.658C1024.44 948.259 1018.17 953.656 1010.46 960.742C1008.09 958.096 1005.69 955.486 1003.25 952.913C990.962 940.11 970.527 933.801 955.55 947.585C952.626 950.276 948.309 957.705 949.067 961.919C952.671 981.929 982.068 987.173 997.775 994.558C1016.29 1003 1033.24 1016.2 1034.25 1038.4C1036.04 1078.15 1007.39 1092.64 972.686 1093.52C955.075 1091.36 943.105 1088.46 929.238 1076.32C925.034 1072.64 913.163 1059.93 912.869 1054.93C916.033 1050.86 930.229 1041.57 934.909 1038.29C946.897 1054 958.659 1068.7 981.12 1065.5C994.26 1063.63 1006.47 1053.27 1002.32 1039.29C996.023 1018.1 960.66 1013.87 943.399 1002.87C917.907 986.629 912.208 962.911 926.171 936.6C934.122 922.122 950.561 915.805 966.268 912.382Z"/><path fill="#010101" d="M1247.14 912.475C1277.58 910.982 1292.18 918.936 1312.4 941.68C1304.63 947.322 1297.04 953.194 1289.63 959.288C1280.14 947.955 1271.18 940.421 1255.25 940.332C1243.3 940.265 1228.07 946.411 1229.12 960.644C1229.69 977.134 1253.47 986.178 1268.23 990.912C1309.55 1004.17 1331.91 1043.23 1297.26 1079.24C1284.85 1092.13 1266.35 1094.32 1248.29 1093.78C1222.8 1089.2 1204.47 1077.91 1191.54 1054.88C1196.3 1051.03 1208.65 1042.3 1213.94 1040.02C1215.7 1040.17 1228.88 1054.83 1232.59 1058.15C1257.83 1080.79 1303.01 1052.53 1273.62 1026.74C1259.42 1017.68 1242.3 1014.14 1227.57 1005.69C1180.7 978.789 1194.74 922.442 1247.14 912.475Z"/><path fill="#010101" d="M1154.49 915.003C1165.35 914.687 1176.63 914.689 1187.53 914.549C1177.51 935.158 1162.31 961.022 1151.05 981.824C1147.75 988.286 1132.13 1015.6 1131.33 1020.26C1128.09 1039.09 1129.97 1070.99 1129.56 1091.02L1098.99 1090.94C1098.64 1075.85 1100.45 1033.03 1097.65 1021.39C1094.28 1007.41 1043.73 924.211 1043.2 915.39C1054.02 915.05 1064.86 915.014 1075.69 915.282C1087.65 933.453 1102.43 967.761 1114.68 989.049C1118.68 983.332 1123.64 972.838 1126.96 966.403C1135.84 949.149 1143.86 931.308 1154.49 915.003Z"/><path fill="#010101" d="M1325.8 915.109C1365.48 913.917 1410.06 914.759 1450.16 914.764L1450.21 943.229L1402.73 943.427L1402.82 1045.5L1402.74 1090.56C1392.86 1090.81 1382.97 1090.82 1373.08 1090.58C1372.83 1041.42 1372.92 992.256 1373.34 943.094L1325.51 943.276C1325.08 936.079 1325.05 921.986 1325.8 915.109Z"/><path fill="#010101" d="M498.368 914.992C507.311 914.494 519.352 914.808 528.533 914.769L528.171 1090.06C519.44 1090.61 506.919 1090.27 497.901 1090.31C497.97 1033.04 496.952 971.95 498.368 914.992Z"/><path fill="#010101" d="M1923.27 914.86C1963.33 914.031 2007.6 914.99 2048 914.943L2048 942.934L2001.03 943.079C2000.87 992.071 2000.96 1041.06 2001.31 1090.05L1971.09 1090.01C1970 1042.78 1971.26 990.573 1971.47 943L1923.25 943.065L1923.27 914.86Z"/></svg>