<svg preserveAspectRatio="none" width="100%" height="100%" overflow="visible" style="display: block;" viewBox="0 0 18.5 18.5" fill="none" xmlns="http://www.w3.org/2000/svg">
<g id="Group 2">
<path id="Vector 4" d="M0.5 4.5V14C0.5 16.2091 2.29086 18 4.5 18H14C16.2091 18 18 16.2091 18 14V4.5C18 2.29086 16.2091 0.5 14 0.5H4.5C2.29086 0.5 0.5 2.29086 0.5 4.5Z" stroke="var(--stroke-0, #1E1E1E)" stroke-linejoin="round"/>
<path id="Ellipse 2" d="M9.32719 4.94659C11.6712 4.94659 13.5762 6.85882 13.5762 9.22394C13.5762 11.5891 11.6712 13.5013 9.32719 13.5013C6.98328 13.5012 5.07817 11.589 5.07817 9.22394C5.07822 6.8589 6.98332 4.94672 9.32719 4.94659Z" stroke="var(--stroke-0, #1E1E1E)"/>
<path id="Ellipse 3" d="M14.6965 3.18102C15.1016 3.1812 15.4346 3.51236 15.4348 3.92712C15.4348 4.34197 15.1016 4.67304 14.6965 4.67321C14.2912 4.67321 13.9572 4.34207 13.9572 3.92712C13.9573 3.51225 14.2912 3.18102 14.6965 3.18102Z" stroke="var(--stroke-0, #1E1E1E)"/>
</g>
</svg>
